<?xml version="1.0" standalone="no"?>
<!-- Creator: fig2dev Version 3.2.6a -->
<!-- CreationDate: 2019-02-21 07:33:51 -->
<!-- Magnification: 1.05 -->
<svg	xmlns="http://www.w3.org/2000/svg"
	xmlns:xlink="http://www.w3.org/1999/xlink"
	width="285pt" height="222pt"
	viewBox="1172 13 4519 3511">
<desc> Created by WinFIG version 7.5 </desc>
<desc> METADATA <version>1.0</version> </desc>
<g fill="none">
<!-- Line -->
<!--  METADATA <id>2</id>  -->
<rect x="1188" y="591" width="4491" height="344" fill="#d8f8d8"
	stroke="#000000" stroke-width="8px"/>
<!-- Line -->
<!--  METADATA <id>4</id>  -->
<rect x="1184" y="1397" width="4488" height="354" fill="#e5fae5"
	stroke="#000000" stroke-width="8px"/>
<!-- Line -->
<!--  METADATA <id>8</id>  -->
<defs>
<clipPath id="cp0">
	<path clip-rule="evenodd" d="M 1172,13 H 5691 V 3524 H 1172 z
		M 1621,2212 1561,2211 1582,2355 1596,2355z"/>
</clipPath>
</defs>
<polyline points=" 1596,1757 1589,2348" clip-path="url(#cp0)"
	stroke="#000000" stroke-width="8px"/>
<!-- Forward arrow to point 1589,2348 -->
<polygon points=" 1561,2211 1589,2332 1621,2212 1561,2211"
	stroke="#000000" stroke-width="8px" stroke-miterlimit="8" fill="#000000"/>
<!-- Line -->
<!--  METADATA <id>11</id>  -->
<defs>
<clipPath id="cp1">
	<path clip-rule="evenodd" d="M 1172,13 H 5691 V 3524 H 1172 z
		M 5158,2242 5098,2242 5121,2385 5135,2385z"/>
</clipPath>
</defs>
<polyline points=" 5128,1779 5128,2378" clip-path="url(#cp1)"
	stroke="#000000" stroke-width="8px"/>
<!-- Forward arrow to point 5128,2378 -->
<polygon points=" 5098,2242 5128,2362 5158,2242 5098,2242"
	stroke="#000000" stroke-width="8px" stroke-miterlimit="8" fill="#000000"/>
<!-- Line -->
<!--  METADATA <id>28</id>  -->
<defs>
<clipPath id="cp2">
	<path clip-rule="evenodd" d="M 1172,13 H 5691 V 3524 H 1172 z
		M 1643,3150 1583,3150 1606,3293 1620,3293z"/>
</clipPath>
</defs>
<polyline points=" 1613,2813 1613,3286" clip-path="url(#cp2)"
	stroke="#000000" stroke-width="8px"/>
<!-- Forward arrow to point 1613,3286 -->
<polygon points=" 1583,3150 1613,3270 1643,3150 1583,3150"
	stroke="#000000" stroke-width="8px" stroke-miterlimit="8" fill="#000000"/>
<!-- Line -->
<!--  METADATA <id>31</id>  -->
<defs>
<clipPath id="cp3">
	<path clip-rule="evenodd" d="M 1172,13 H 5691 V 3524 H 1172 z
		M 5186,3150 5126,3150 5149,3293 5163,3293z"/>
</clipPath>
</defs>
<polyline points=" 5156,2813 5156,3286" clip-path="url(#cp3)"
	stroke="#000000" stroke-width="8px"/>
<!-- Forward arrow to point 5156,3286 -->
<polygon points=" 5126,3150 5156,3270 5186,3150 5126,3150"
	stroke="#000000" stroke-width="8px" stroke-miterlimit="8" fill="#000000"/>
<!-- Line -->
<!--  METADATA <id>33</id>  -->
<defs>
<clipPath id="cp4">
	<path clip-rule="evenodd" d="M 1172,13 H 5691 V 3524 H 1172 z
		M 3337,455 3277,455 3300,598 3314,598z"/>
</clipPath>
</defs>
<polyline points=" 3307,236 3307,591" clip-path="url(#cp4)"
	stroke="#000000" stroke-width="8px"/>
<!-- Forward arrow to point 3307,591 -->
<polygon points=" 3277,455 3307,575 3337,455 3277,455"
	stroke="#000000" stroke-width="8px" stroke-miterlimit="8" fill="#000000"/>
<!-- Line -->
<!--  METADATA <id>34</id>  -->
<defs>
<clipPath id="cp5">
	<path clip-rule="evenodd" d="M 1172,13 H 5691 V 3524 H 1172 z
		M 1843,1267 1783,1267 1806,1410 1820,1410z"/>
</clipPath>
</defs>
<polyline points=" 1813,930 1813,1403" clip-path="url(#cp5)"
	stroke="#000000" stroke-width="8px"/>
<!-- Forward arrow to point 1813,1403 -->
<polygon points=" 1783,1267 1813,1387 1843,1267 1783,1267"
	stroke="#000000" stroke-width="8px" stroke-miterlimit="8" fill="#000000"/>
<!-- Line -->
<!--  METADATA <id>35</id>  -->
<defs>
<clipPath id="cp6">
	<path clip-rule="evenodd" d="M 1172,13 H 5691 V 3524 H 1172 z
		M 2670,1267 2610,1267 2633,1410 2647,1410z"/>
</clipPath>
</defs>
<polyline points=" 2640,930 2640,1403" clip-path="url(#cp6)"
	stroke="#000000" stroke-width="8px"/>
<!-- Forward arrow to point 2640,1403 -->
<polygon points=" 2610,1267 2640,1387 2670,1267 2610,1267"
	stroke="#000000" stroke-width="8px" stroke-miterlimit="8" fill="#000000"/>
<!-- Line -->
<!--  METADATA <id>36</id>  -->
<defs>
<clipPath id="cp7">
	<path clip-rule="evenodd" d="M 1172,13 H 5691 V 3524 H 1172 z
		M 4087,1267 4027,1267 4050,1410 4064,1410z"/>
</clipPath>
</defs>
<polyline points=" 4057,930 4057,1403" clip-path="url(#cp7)"
	stroke="#000000" stroke-width="8px"/>
<!-- Forward arrow to point 4057,1403 -->
<polygon points=" 4027,1267 4057,1387 4087,1267 4027,1267"
	stroke="#000000" stroke-width="8px" stroke-miterlimit="8" fill="#000000"/>
<!-- Line -->
<!--  METADATA <id>38</id>  -->
<defs>
<clipPath id="cp8">
	<path clip-rule="evenodd" d="M 1172,13 H 5691 V 3524 H 1172 z
		M 4914,1267 4854,1267 4877,1410 4891,1410z"/>
</clipPath>
</defs>
<polyline points=" 4884,930 4884,1403" clip-path="url(#cp8)"
	stroke="#000000" stroke-width="8px"/>
<!-- Forward arrow to point 4884,1403 -->
<polygon points=" 4854,1267 4884,1387 4914,1267 4854,1267"
	stroke="#000000" stroke-width="8px" stroke-miterlimit="8" fill="#000000"/>
<!-- Line -->
<!--  METADATA <id>39</id>  -->
<polyline points=" 2994,1166 3944,1168"
	stroke="#000000" stroke-width="8px" stroke-dasharray="10 40"/>
<!-- Line -->
<!--  METADATA <id>6</id>  -->
<rect x="1368" y="2348" width="481" height="465" fill="#ffe5e5"
	stroke="#000000" stroke-width="8px"/>
<!-- Line -->
<!--  METADATA <id>24</id>  -->
<rect x="4915" y="2344" width="481" height="465" fill="#ffe5e5"
	stroke="#000000" stroke-width="8px"/>
<!-- Line -->
<!--  METADATA <id>10</id>  -->
<defs>
<clipPath id="cp9">
	<path clip-rule="evenodd" d="M 1172,13 H 5691 V 3524 H 1172 z
		M 4567,2199 4507,2199 4529,2342 4543,2342z"/>
</clipPath>
</defs>
<polyline points=" 4539,1744 4536,2335" clip-path="url(#cp9)"
	stroke="#000000" stroke-width="8px"/>
<!-- Forward arrow to point 4536,2335 -->
<polygon points=" 4507,2199 4536,2319 4567,2199 4507,2199"
	stroke="#000000" stroke-width="8px" stroke-miterlimit="8" fill="#000000"/>
<!-- Line -->
<!--  METADATA <id>30</id>  -->
<!--  METADATA <link srcPointIdx=0 targetObjId=21 targetLeftPointIdx=2/>  -->
<defs>
<clipPath id="cp10">
	<path clip-rule="evenodd" d="M 1172,13 H 5691 V 3524 H 1172 z
		M 4558,3129 4498,3129 4522,3272 4536,3272z"/>
</clipPath>
</defs>
<polyline points=" 4526,2808 4529,3265" clip-path="url(#cp10)"
	stroke="#000000" stroke-width="8px"/>
<!-- Forward arrow to point 4529,3265 -->
<polygon points=" 4498,3129 4529,3249 4558,3129 4498,3129"
	stroke="#000000" stroke-width="8px" stroke-miterlimit="8" fill="#000000"/>
<!-- Line -->
<!--  METADATA <id>21</id>  -->
<rect x="4189" y="2339" width="676" height="469" fill="#ffe5e5"
	stroke="#000000" stroke-width="8px"/>
<!-- Line -->
<!--  METADATA <id>9</id>  -->
<defs>
<clipPath id="cp11">
	<path clip-rule="evenodd" d="M 1172,13 H 5691 V 3524 H 1172 z
		M 2253,2198 2193,2198 2217,2341 2231,2341z"/>
</clipPath>
</defs>
<polyline points=" 2219,1743 2224,2334" clip-path="url(#cp11)"
	stroke="#000000" stroke-width="8px"/>
<!-- Forward arrow to point 2224,2334 -->
<polygon points=" 2193,2198 2224,2318 2253,2198 2193,2198"
	stroke="#000000" stroke-width="8px" stroke-miterlimit="8" fill="#000000"/>
<!-- Line -->
<!--  METADATA <id>29</id>  -->
<defs>
<clipPath id="cp12">
	<path clip-rule="evenodd" d="M 1172,13 H 5691 V 3524 H 1172 z
		M 2250,3150 2190,3150 2213,3293 2227,3293z"/>
</clipPath>
</defs>
<polyline points=" 2220,2813 2220,3286" clip-path="url(#cp12)"
	stroke="#000000" stroke-width="8px"/>
<!-- Forward arrow to point 2220,3286 -->
<polygon points=" 2190,3150 2220,3270 2250,3150 2190,3150"
	stroke="#000000" stroke-width="8px" stroke-miterlimit="8" fill="#000000"/>
<!-- Line -->
<!--  METADATA <id>18</id>  -->
<rect x="1934" y="2345" width="567" height="468" fill="#ffe5e5"
	stroke="#000000" stroke-width="8px"/>
<!-- Line -->
<!--  METADATA <id>51</id>  -->
<polyline points=" 2577,2581 4120,2578"
	stroke="#000000" stroke-width="8px" stroke-dasharray="10 40"/>
<!-- Text -->
<!--  METADATA <id>1</id>  -->
<text xml:space="preserve" x="3281" y="195" fill="#000000" font-family="Times" font-style="normal" font-weight="normal" font-size="144" text-anchor="middle">Input</text>
<!-- Text -->
<!--  METADATA <id>3</id>  -->
<text xml:space="preserve" x="3285" y="840" fill="#000000" font-family="Times" font-style="normal" font-weight="normal" font-size="144" text-anchor="middle">padding and splitting</text>
<!-- Text -->
<!--  METADATA <id>5</id>  -->
<text xml:space="preserve" x="3293" y="1660" fill="#000000" font-family="Times" font-style="normal" font-weight="normal" font-size="144" text-anchor="middle">Reed-Solomon (m of n)</text>
<!-- Text -->
<!--  METADATA <id>40</id>  -->
<text xml:space="preserve" x="3356" y="3447" fill="#000000" font-family="Times" font-style="normal" font-weight="normal" font-size="144" text-anchor="middle">output</text>
<!-- Text -->
<!--  METADATA <id>7</id>  -->
<text xml:space="preserve" x="1606" y="2654" fill="#000000" font-family="Times" font-style="normal" font-weight="normal" font-size="144" text-anchor="middle">E<tspan font-size="96" baseline-shift="super">k<tspan font-size="96" baseline-shift="sub">1</tspan></text>
<!-- Text -->
<!--  METADATA <id>25</id>  -->
<text xml:space="preserve" x="5149" y="2653" fill="#000000" font-family="Times" font-style="normal" font-weight="normal" font-size="144" text-anchor="middle">E<tspan font-size="96" baseline-shift="super">k<tspan font-size="96" baseline-shift="sub">n</tspan>}</text>
<!-- Text -->
<!--  METADATA <id>41</id>  -->
<text xml:space="preserve" x="1828" y="1219" fill="#000000" font-family="Times" font-style="normal" font-weight="normal" font-size="144" text-anchor="start">B<tspan font-size="96" baseline-shift="sub">1</tspan></text>
<!-- Text -->
<!--  METADATA <id>42</id>  -->
<text xml:space="preserve" x="2653" y="1204" fill="#000000" font-family="Times" font-style="normal" font-weight="normal" font-size="144" text-anchor="start">B<tspan font-size="96" baseline-shift="sub">2</tspan></text>
<!-- Text -->
<!--  METADATA <id>43</id>  -->
<text xml:space="preserve" x="4078" y="1219" fill="#000000" font-family="Times" font-style="normal" font-weight="normal" font-size="144" text-anchor="start">B<tspan font-size="96" baseline-shift="sub">n-m-1</tspan></text>
<!-- Text -->
<!--  METADATA <id>44</id>  -->
<text xml:space="preserve" x="4898" y="1214" fill="#000000" font-family="Times" font-style="normal" font-weight="normal" font-size="144" text-anchor="start">B<tspan font-size="96" baseline-shift="sub">n-m</tspan></text>
<!-- Text -->
<!--  METADATA <id>45</id>  -->
<text xml:space="preserve" x="1626" y="2121" fill="#000000" font-family="Times" font-style="normal" font-weight="normal" font-size="144" text-anchor="start">C<tspan font-size="96" baseline-shift="sub">1</tspan></text>
<!-- Text -->
<!--  METADATA <id>22</id>  -->
<text xml:space="preserve" x="4526" y="2629" fill="#000000" font-family="Times" font-style="normal" font-weight="normal" font-size="144" text-anchor="middle">E<tspan font-size="96" baseline-shift="super">k<tspan font-size="96" baseline-shift="sub">n-1</tspan>}</text>
<!-- Text -->
<!--  METADATA <id>19</id>  -->
<text xml:space="preserve" x="2224" y="2647" fill="#000000" font-family="Times" font-style="normal" font-weight="normal" font-size="144" text-anchor="middle">E<tspan font-size="96" baseline-shift="super">k<tspan font-size="96" baseline-shift="sub">2</tspan>}</text>
<!-- Text -->
<!--  METADATA <id>48</id>  -->
<text xml:space="preserve" x="2267" y="2103" fill="#000000" font-family="Times" font-style="normal" font-weight="normal" font-size="144" text-anchor="start">C<tspan font-size="96" baseline-shift="sub">2</tspan></text>
<!-- Text -->
<!--  METADATA <id>49</id>  -->
<text xml:space="preserve" x="4572" y="2108" fill="#000000" font-family="Times" font-style="normal" font-weight="normal" font-size="144" text-anchor="start">C<tspan font-size="96" baseline-shift="sub">n-1</tspan></text>
<!-- Text -->
<!--  METADATA <id>50</id>  -->
<text xml:space="preserve" x="5170" y="2128" fill="#000000" font-family="Times" font-style="normal" font-weight="normal" font-size="144" text-anchor="start">C<tspan font-size="96" baseline-shift="sub">n</tspan></text>
<!-- Text -->
<!--  METADATA <id>53</id>  -->
<text xml:space="preserve" x="1638" y="3043" fill="#000000" font-family="Times" font-style="normal" font-weight="normal" font-size="144" text-anchor="start">O<tspan font-size="96" baseline-shift="sub">1</tspan></text>
<!-- Text -->
<!--  METADATA <id>54</id>  -->
<text xml:space="preserve" x="2241" y="3039" fill="#000000" font-family="Times" font-style="normal" font-weight="normal" font-size="144" text-anchor="start">O<tspan font-size="96" baseline-shift="sub">2</tspan></text>
<!-- Text -->
<!--  METADATA <id>55</id>  -->
<text xml:space="preserve" x="4552" y="3039" fill="#000000" font-family="Times" font-style="normal" font-weight="normal" font-size="144" text-anchor="start">O<tspan font-size="96" baseline-shift="sub">n-1</tspan></text>
<!-- Text -->
<!--  METADATA <id>56</id>  -->
<text xml:space="preserve" x="5177" y="3039" fill="#000000" font-family="Times" font-style="normal" font-weight="normal" font-size="144" text-anchor="start">O<tspan font-size="96" baseline-shift="sub">n</tspan></text>
<!-- Text -->
<!--  METADATA <id>57</id>  -->
<text xml:space="preserve" x="3336" y="418" fill="#000000" font-family="Times" font-style="normal" font-weight="normal" font-size="144" text-anchor="start">I</text>
</g>
</svg>
