<?xml version="1.0" standalone="no"?>
<!-- Creator: fig2dev Version 3.2.6a -->
<!-- CreationDate: 2019-02-21 07:33:51 -->
<!-- Magnification: 1.05 -->
<svg	xmlns="http://www.w3.org/2000/svg"
	xmlns:xlink="http://www.w3.org/1999/xlink"
	width="619pt" height="149pt"
	viewBox="243 1218 9820 2351">
<desc> Created by WinFIG version 6.2 </desc>
<desc> METADATA <version>1.0</version> </desc>
<g fill="none">
<!-- Line -->
<!--  METADATA <id>57</id>  -->
<rect x="6025" y="1404" width="446" height="447"
	stroke="#000000" stroke-width="8px"/>
<!-- Line -->
<!--  METADATA <id>58</id>  -->
<rect x="6235" y="1438" width="169" height="160"
	stroke="#000000" stroke-width="8px"/>
<!-- Line -->
<!--  METADATA <id>59</id>  -->
<polygon points=" 5957,1788 6006,1789 6007,1872 6494,1874 6493,1799 6540,1799 6540,1912 5955,1914
" fill="#9fd8ff"
	stroke="#000000" stroke-width="8px"/>
<!-- Line -->
<!--  METADATA <id>64</id>  -->
<polyline points=" 6058,1819 6214,1622"
	stroke="#000000" stroke-width="8px" stroke-dasharray="10 40"/>
<!-- Line -->
<!--  METADATA <id>76</id>  -->
<rect x="6705" y="1404" width="446" height="447"
	stroke="#000000" stroke-width="8px"/>
<!-- Line -->
<!--  METADATA <id>77</id>  -->
<rect x="6915" y="1438" width="169" height="160"
	stroke="#000000" stroke-width="8px"/>
<!-- Line -->
<!--  METADATA <id>78</id>  -->
<polygon points=" 6637,1788 6686,1789 6687,1872 7174,1874 7173,1799 7220,1799 7220,1912 6635,1914
" fill="#9fd8ff"
	stroke="#000000" stroke-width="8px"/>
<!-- Line -->
<!--  METADATA <id>79</id>  -->
<polyline points=" 6738,1819 6894,1622"
	stroke="#000000" stroke-width="8px" stroke-dasharray="10 40"/>
<!-- Line -->
<!--  METADATA <id>41</id>  -->
<rect x="2836" y="2233" width="2032" height="562"
	stroke="#000000" stroke-width="8px"/>
<!-- Line -->
<!--  METADATA <id>42</id>  -->
<polygon points=" 1455,3075 1470,3540 10051,3540 10051,3090 9811,3088 9811,3315 1725,3315 1710,3090
" fill="#bff3bf"
	stroke="#000000" stroke-width="8px"/>
<!-- Line -->
<!--  METADATA <id>45</id>  -->
<rect x="7919" y="1230" width="225" height="1920"
	stroke="#000000" stroke-width="8px"/>
<!-- Line -->
<!--  METADATA <id>46</id>  -->
<rect x="8369" y="1230" width="240" height="1920"
	stroke="#000000" stroke-width="8px"/>
<!-- Line -->
<!--  METADATA <id>47</id>  -->
<rect x="9299" y="1260" width="255" height="1875"
	stroke="#000000" stroke-width="8px"/>
<!-- Line -->
<!--  METADATA <id>48</id>  -->
<polyline points=" 8744,2925 9149,2940"
	stroke="#000000" stroke-width="8px" stroke-dasharray="10 40"/>
<!-- Line -->
<!--  METADATA <id>53</id>  -->
<polygon points=" 5277,2694 5050,2697 5053,2898 2685,2907 2682,2690 2455,2690 2455,3160 5284,3167
" fill="#9fd8ff"
	stroke="#000000" stroke-width="8px"/>
<!-- Line -->
<!--  METADATA <id>54</id>  -->
<polygon points=" 5481,2686 5481,3159 7625,3166 7625,2693 7389,2693 7386,2935 5718,2923 5718,2686
" fill="#9fd8ff"
	stroke="#000000" stroke-width="8px"/>
<!-- Line -->
<!--  METADATA <id>55</id>  -->
<rect x="5830" y="1265" width="1455" height="1557"
	stroke="#000000" stroke-width="8px"/>
<!-- Line -->
<!--  METADATA <id>65</id>  -->
<polygon points=" 1313,3075 1313,3540 263,3540 255,3075 435,3075 435,3255 1095,3263 1095,3083
"
	stroke="#000000" stroke-width="8px"/>
<!-- Line -->
<!--  METADATA <id>66</id>  -->
<rect x="1860" y="2587" width="465" height="578"
	stroke="#000000" stroke-width="8px"/>
<!-- Line -->
<!--  METADATA <id>84</id>  -->
<rect x="517" y="2591" width="465" height="578"
	stroke="#000000" stroke-width="8px"/>
<!-- Text -->
<!--  METADATA <id>49</id>  -->
<g transform="translate(8084,2205) rotate(-90)" >
<text xml:space="preserve" x="0" y="0" fill="#000000" font-family="Times" font-style="normal" font-weight="normal" font-size="144" text-anchor="middle">payloadBlock<tspan font-size="96" baseline-shift="sub">0</tspan></text>
</g><!-- Text -->
<!--  METADATA <id>51</id>  -->
<g transform="translate(8542,2220) rotate(-90)" >
<text xml:space="preserve" x="0" y="0" fill="#000000" font-family="Times" font-style="normal" font-weight="normal" font-size="144" text-anchor="middle">payloadBlock<tspan font-size="96" baseline-shift="sub">1</tspan></text>
</g><!-- Text -->
<!--  METADATA <id>52</id>  -->
<g transform="translate(9487,2205) rotate(-90)" >
<text xml:space="preserve" x="0" y="0" fill="#000000" font-family="Times" font-style="normal" font-weight="normal" font-size="144" text-anchor="middle">payloadBlock<tspan font-size="96" baseline-shift="sub">n-1</tspan></text>
</g><!-- Text -->
<!--  METADATA <id>56</id>  -->
<text xml:space="preserve" x="3848" y="2594" fill="#000000" font-family="Times" font-style="normal" font-weight="normal" font-size="144" text-anchor="middle">headerBlock</text>
<!-- Text -->
<!--  METADATA <id>60</id>  -->
<text xml:space="preserve" x="3870" y="3079" fill="#000000" font-family="Times" font-style="normal" font-weight="normal" font-size="144" text-anchor="middle">k<tspan font-size="96" baseline-shift="sub">sender1</tspan></text>
<!-- Text -->
<!--  METADATA <id>61</id>  -->
<text xml:space="preserve" x="5550" y="3495" fill="#000000" font-family="Times" font-style="normal" font-weight="normal" font-size="144" text-anchor="middle">k<tspan font-size="96" baseline-shift="sub">peer</tspan></text>
<!-- Text -->
<!--  METADATA <id>62</id>  -->
<text xml:space="preserve" x="6555" y="3140" fill="#000000" font-family="Times" font-style="normal" font-weight="normal" font-size="144" text-anchor="middle">k<tspan font-size="96" baseline-shift="sub">sender1</tspan></text>
<!-- Text -->
<!--  METADATA <id>63</id>  -->
<text xml:space="preserve" x="6553" y="2713" fill="#000000" font-family="Times" font-style="normal" font-weight="normal" font-size="144" text-anchor="middle">routingBlock<tspan font-size="96" baseline-shift="sub">i</tspan></text>
<!-- Text -->
<!--  METADATA <id>67</id>  -->
<text xml:space="preserve" x="758" y="2955" fill="#000000" font-family="Times" font-style="normal" font-weight="normal" font-size="144" text-anchor="middle">k<tspan font-size="96" baseline-shift="sub">peer</tspan></text>
<!-- Text -->
<!--  METADATA <id>68</id>  -->
<text xml:space="preserve" x="780" y="3495" fill="#000000" font-family="Times" font-style="normal" font-weight="normal" font-size="144" text-anchor="middle">k<tspan font-size="96" baseline-shift="super">-1</tspan><tspan font-size="96" baseline-shift="sub">host</tspan></text>
<!-- Text -->
<!--  METADATA <id>85</id>  -->
<text xml:space="preserve" x="2100" y="2977" fill="#000000" font-family="Times" font-style="normal" font-weight="normal" font-size="144" text-anchor="middle">pad</text>
</g>
</svg>
