<?xml version="1.0" standalone="no"?>
<!-- Creator: fig2dev Version 3.2.6a -->
<!-- CreationDate: 2019-02-21 07:33:51 -->
<!-- Magnification: 1.05 -->
<svg	xmlns="http://www.w3.org/2000/svg"
	xmlns:xlink="http://www.w3.org/1999/xlink"
	width="984pt" height="478pt"
	viewBox="1878 3059 15614 7575">
<desc> Created by WinFIG version 5.01 </desc>
<desc> METADATA <version>1.0</version> </desc>
<g fill="none">
<!-- Line -->
<!--  METADATA <id>18</id>  -->
<rect x="1890" y="3071" width="15590" height="5669" fill="#99d6ff"
	stroke="#000000" stroke-width="8px"/>
<!-- Line -->
<!--  METADATA <id>23</id>  -->
<!--  METADATA <link srcPointIdx=0 targetObjId=20 targetLeftPointIdx=0/>  -->
<!--  METADATA <link srcPointIdx=1 targetObjId=46 targetLeftPointIdx=2/>  -->
<defs>
<clipPath id="cp0">
	<path clip-rule="evenodd" d="M 1878,3059 H 17492 V 10634 H 1878 z
		M 14590,5918 14710,5916 14653,5654 14639,5654z"/>
</clipPath>
</defs>
<polyline points=" 14653,6134 14646,5661" clip-path="url(#cp0)"
	stroke="#000000" stroke-width="8px"/>
<!-- Forward arrow to point 14646,5661 -->
<polygon points=" 14710,5916 14646,5677 14590,5918 14710,5916"
	stroke="#000000" stroke-width="8px" stroke-miterlimit="8" fill="#000000"/>
<!-- Line -->
<!--  METADATA <id>1</id>  -->
<rect x="7802" y="3535" width="4297" height="709" fill="#ffffff"
	stroke="#000000" stroke-width="8px"/>
<!-- Line -->
<!--  METADATA <id>5</id>  -->
<rect x="8275" y="6126" width="3315" height="716" fill="#ffffff"
	stroke="#000000" stroke-width="8px"/>
<!-- Line -->
<!--  METADATA <id>3</id>  -->
<rect x="3299" y="5905" width="3780" height="701" fill="#ffffff"
	stroke="#000000" stroke-width="8px"/>
<!-- Line -->
<!--  METADATA <id>10</id>  -->
<rect x="3314" y="7559" width="3773" height="700" fill="#ffffff"
	stroke="#000000" stroke-width="8px"/>
<!-- Line -->
<!--  METADATA <id>11</id>  -->
<!--  METADATA <link srcPointIdx=0 targetObjId=3 targetLeftPointIdx=1/>  -->
<!--  METADATA <link srcPointIdx=1 targetObjId=5 targetLeftPointIdx=3/>  -->
<defs>
<clipPath id="cp1">
	<path clip-rule="evenodd" d="M 1878,3059 H 17492 V 10634 H 1878 z
		M 8019,6318 8019,6438 8282,6385 8282,6371z"/>
</clipPath>
</defs>
<polyline points=" 7079,6377 8275,6378" clip-path="url(#cp1)"
	stroke="#000000" stroke-width="8px"/>
<!-- Forward arrow to point 8275,6378 -->
<polygon points=" 8019,6438 8259,6378 8019,6318 8019,6438"
	stroke="#000000" stroke-width="8px" stroke-miterlimit="8" fill="#000000"/>
<!-- Line -->
<!--  METADATA <id>12</id>  -->
<!--  METADATA <link srcPointIdx=0 targetObjId=5 targetLeftPointIdx=3/>  -->
<!--  METADATA <link srcPointIdx=1 targetObjId=10 targetLeftPointIdx=1/>  -->
<defs>
<clipPath id="cp2">
	<path clip-rule="evenodd" d="M 1878,3059 H 17492 V 10634 H 1878 z
		M 7311,7657 7226,7572 7077,7795 7087,7805z"/>
</clipPath>
</defs>
<polyline points=" 8275,6614 7087,7795" clip-path="url(#cp2)"
	stroke="#000000" stroke-width="8px"/>
<!-- Forward arrow to point 7087,7795 -->
<polygon points=" 7226,7572 7098,7784 7311,7657 7226,7572"
	stroke="#000000" stroke-width="8px" stroke-miterlimit="8" fill="#000000"/>
<!-- Line -->
<!--  METADATA <id>13</id>  -->
<!--  METADATA <link srcPointIdx=0 targetObjId=5 targetLeftPointIdx=0/>  -->
<!--  METADATA <link srcPointIdx=1 targetObjId=1 targetLeftPointIdx=2/>  -->
<defs>
<clipPath id="cp3">
	<path clip-rule="evenodd" d="M 1878,3059 H 17492 V 10634 H 1878 z
		M 9860,4500 9980,4500 9928,4237 9914,4237z"/>
</clipPath>
</defs>
<polyline points=" 9914,6126 9921,4244" clip-path="url(#cp3)"
	stroke="#000000" stroke-width="8px"/>
<!-- Forward arrow to point 9921,4244 -->
<polygon points=" 9980,4500 9921,4260 9860,4500 9980,4500"
	stroke="#000000" stroke-width="8px" stroke-miterlimit="8" fill="#000000"/>
<!-- Line -->
<!--  METADATA <id>17</id>  -->
<!--  METADATA <link srcPointIdx=0 targetObjId=5 targetLeftPointIdx=0/>  -->
<!--  METADATA <link srcPointIdx=1 targetObjId=46 targetLeftPointIdx=3/>  -->
<defs>
<clipPath id="cp4">
	<path clip-rule="evenodd" d="M 1878,3059 H 17492 V 10634 H 1878 z
		M 9860,4500 9980,4500 9928,4237 9914,4237z
		M 10657,6117 10626,6001 10386,6121 10389,6134z"/>
</clipPath>
</defs>
<polyline points=" 10394,6126 12968,5433" clip-path="url(#cp4)"
	stroke="#000000" stroke-width="8px"/>
<!-- Backward arrow to point 10394,6126 -->
<polygon points=" 10626,6001 10410,6122 10657,6117 10626,6001"
	stroke="#000000" stroke-width="8px" stroke-miterlimit="8" fill="#000000"/>
<!-- Line -->
<!--  METADATA <id>20</id>  -->
<rect x="12999" y="6134" width="3299" height="708" fill="#ffffff"
	stroke="#000000" stroke-width="8px"/>
<!-- Line -->
<!--  METADATA <id>24</id>  -->
<rect x="8260" y="7552" width="2834" height="708" fill="#e5e5e5"
	stroke="#000000" stroke-width="8px"/>
<!-- Line -->
<!--  METADATA <id>26</id>  -->
<rect x="11346" y="7566" width="2834" height="708" fill="#e5e5e5"
	stroke="#000000" stroke-width="8px"/>
<!-- Line -->
<!--  METADATA <id>27</id>  -->
<rect x="14416" y="7552" width="2834" height="708" fill="#ffffff"
	stroke="#000000" stroke-width="8px"/>
<!-- Line -->
<!--  METADATA <id>31</id>  -->
<rect x="8278" y="9887" width="2834" height="708" fill="#e5e5e5"
	stroke="#000000" stroke-width="8px"/>
<!-- Line -->
<!--  METADATA <id>32</id>  -->
<rect x="11349" y="9902" width="2834" height="708" fill="#e5e5e5"
	stroke="#000000" stroke-width="8px"/>
<!-- Line -->
<!--  METADATA <id>33</id>  -->
<rect x="14417" y="9914" width="2834" height="708" fill="#ffffff"
	stroke="#000000" stroke-width="8px"/>
<!-- Line -->
<!--  METADATA <id>46</id>  -->
<rect x="12968" y="4952" width="3323" height="709" fill="#ffffff"
	stroke="#000000" stroke-width="8px"/>
<!-- Line -->
<!--  METADATA <id>48</id>  -->
<!--  METADATA <link srcPointIdx=0 targetObjId=46 targetLeftPointIdx=3/>  -->
<!--  METADATA <link srcPointIdx=1 targetObjId=1 targetLeftPointIdx=2/>  -->
<defs>
<clipPath id="cp5">
	<path clip-rule="evenodd" d="M 1878,3059 H 17492 V 10634 H 1878 z
		M 10613,4389 10655,4277 10390,4235 10385,4248z
		M 10657,6117 10626,6001 10386,6121 10389,6134z"/>
</clipPath>
</defs>
<polyline points=" 12968,5197 10394,4244" clip-path="url(#cp5)"
	stroke="#000000" stroke-width="8px"/>
<!-- Forward arrow to point 10394,4244 -->
<polygon points=" 10655,4277 10409,4250 10613,4389 10655,4277"
	stroke="#000000" stroke-width="8px" stroke-miterlimit="8" fill="#000000"/>
<!-- Text -->
<!--  METADATA <id>43</id>  -->
<text xml:space="preserve" x="2946" y="3543" fill="#000000" font-family="Times" font-style="normal" font-weight="normal" font-size="240" text-anchor="middle">Vortex core</text>
<!-- Line -->
<!--  METADATA <id>22</id>  -->
<!--  METADATA <link srcPointIdx=0 targetObjId=20 targetLeftPointIdx=3/>  -->
<!--  METADATA <link srcPointIdx=1 targetObjId=5 targetLeftPointIdx=1/>  -->
<defs>
<clipPath id="cp6">
	<path clip-rule="evenodd" d="M 1878,3059 H 17492 V 10634 H 1878 z
		M 11846,6667 11847,6547 11583,6599 11583,6613z
		M 10657,6117 10626,6001 10386,6121 10389,6134z"/>
</clipPath>
</defs>
<polyline points=" 12999,6614 11590,6606" clip-path="url(#cp6)"
	stroke="#000000" stroke-width="8px"/>
<!-- Forward arrow to point 11590,6606 -->
<polygon points=" 11847,6547 11606,6606 11846,6667 11847,6547"
	stroke="#000000" stroke-width="8px" stroke-miterlimit="8" fill="#000000"/>
<!-- Line -->
<!--  METADATA <id>36</id>  -->
<!--  METADATA <link srcPointIdx=0 targetObjId=24 targetLeftPointIdx=2/>  -->
<!--  METADATA <link srcPointIdx=1 targetObjId=20 targetLeftPointIdx=2/>  -->
<defs>
<clipPath id="cp7">
	<path clip-rule="evenodd" d="M 1878,3059 H 17492 V 10634 H 1878 z
		M 14154,6821 14172,6939 14424,6848 14422,6834z
		M 10657,6117 10626,6001 10386,6121 10389,6134z"/>
</clipPath>
</defs>
<polyline points=" 9685,7552 14416,6842" clip-path="url(#cp7)"
	stroke="#000000" stroke-width="8px"/>
<!-- Forward arrow to point 14416,6842 -->
<polygon points=" 14172,6939 14400,6844 14154,6821 14172,6939"
	stroke="#000000" stroke-width="8px" stroke-miterlimit="8" fill="#000000"/>
<!-- Line -->
<!--  METADATA <id>37</id>  -->
<!--  METADATA <link srcPointIdx=0 targetObjId=26 targetLeftPointIdx=2/>  -->
<!--  METADATA <link srcPointIdx=1 targetObjId=20 targetLeftPointIdx=2/>  -->
<defs>
<clipPath id="cp8">
	<path clip-rule="evenodd" d="M 1878,3059 H 17492 V 10634 H 1878 z
		M 14392,6877 14435,6989 14662,6846 14657,6833z
		M 10657,6117 10626,6001 10386,6121 10389,6134z"/>
</clipPath>
</defs>
<polyline points=" 12756,7566 14653,6842" clip-path="url(#cp8)"
	stroke="#000000" stroke-width="8px"/>
<!-- Forward arrow to point 14653,6842 -->
<polygon points=" 14435,6989 14638,6848 14392,6877 14435,6989"
	stroke="#000000" stroke-width="8px" stroke-miterlimit="8" fill="#000000"/>
<!-- Line -->
<!--  METADATA <id>38</id>  -->
<!--  METADATA <link srcPointIdx=0 targetObjId=27 targetLeftPointIdx=2/>  -->
<defs>
<clipPath id="cp9">
	<path clip-rule="evenodd" d="M 1878,3059 H 17492 V 10634 H 1878 z
		M 15056,7057 15128,6960 14885,6847 14877,6857z
		M 10657,6117 10626,6001 10386,6121 10389,6134z"/>
</clipPath>
</defs>
<polyline points=" 15827,7552 14886,6856" clip-path="url(#cp9)"
	stroke="#000000" stroke-width="8px"/>
<!-- Forward arrow to point 14886,6856 -->
<polygon points=" 15128,6960 14899,6866 15056,7057 15128,6960"
	stroke="#000000" stroke-width="8px" stroke-miterlimit="8" fill="#000000"/>
<!-- Line -->
<!--  METADATA <id>39</id>  -->
<!--  METADATA <link srcPointIdx=0 targetObjId=31 targetLeftPointIdx=2/>  -->
<!--  METADATA <link srcPointIdx=1 targetObjId=24 targetLeftPointIdx=0/>  -->
<defs>
<clipPath id="cp10">
	<path clip-rule="evenodd" d="M 1878,3059 H 17492 V 10634 H 1878 z
		M 9625,8516 9745,8516 9692,8253 9678,8253z
		M 10657,6117 10626,6001 10386,6121 10389,6134z"/>
</clipPath>
</defs>
<polyline points=" 9685,9887 9685,8260" clip-path="url(#cp10)"
	stroke="#000000" stroke-width="8px"/>
<!-- Forward arrow to point 9685,8260 -->
<polygon points=" 9745,8516 9685,8276 9625,8516 9745,8516"
	stroke="#000000" stroke-width="8px" stroke-miterlimit="8" fill="#000000"/>
<!-- Line -->
<!--  METADATA <id>40</id>  -->
<!--  METADATA <link srcPointIdx=0 targetObjId=32 targetLeftPointIdx=2/>  -->
<!--  METADATA <link srcPointIdx=1 targetObjId=26 targetLeftPointIdx=0/>  -->
<defs>
<clipPath id="cp11">
	<path clip-rule="evenodd" d="M 1878,3059 H 17492 V 10634 H 1878 z
		M 12696,8530 12816,8530 12763,8267 12749,8267z
		M 10657,6117 10626,6001 10386,6121 10389,6134z"/>
</clipPath>
</defs>
<polyline points=" 12756,9902 12756,8274" clip-path="url(#cp11)"
	stroke="#000000" stroke-width="8px"/>
<!-- Forward arrow to point 12756,8274 -->
<polygon points=" 12816,8530 12756,8290 12696,8530 12816,8530"
	stroke="#000000" stroke-width="8px" stroke-miterlimit="8" fill="#000000"/>
<!-- Line -->
<!--  METADATA <id>41</id>  -->
<!--  METADATA <link srcPointIdx=0 targetObjId=33 targetLeftPointIdx=2/>  -->
<!--  METADATA <link srcPointIdx=1 targetObjId=27 targetLeftPointIdx=0/>  -->
<defs>
<clipPath id="cp12">
	<path clip-rule="evenodd" d="M 1878,3059 H 17492 V 10634 H 1878 z
		M 15769,8517 15889,8516 15834,8253 15820,8253z
		M 10657,6117 10626,6001 10386,6121 10389,6134z"/>
</clipPath>
</defs>
<polyline points=" 15842,9914 15827,8260" clip-path="url(#cp12)"
	stroke="#000000" stroke-width="8px"/>
<!-- Forward arrow to point 15827,8260 -->
<polygon points=" 15889,8516 15827,8276 15769,8517 15889,8516"
	stroke="#000000" stroke-width="8px" stroke-miterlimit="8" fill="#000000"/>
<!-- Text -->
<!--  METADATA <id>2</id>  -->
<text xml:space="preserve" x="10006" y="4016" fill="#000000" font-family="Times" font-style="normal" font-weight="normal" font-size="240" text-anchor="middle">libVortex</text>
<!-- Text -->
<!--  METADATA <id>6</id>  -->
<text xml:space="preserve" x="9921" y="6614" fill="#000000" font-family="Times" font-style="normal" font-weight="normal" font-size="240" text-anchor="middle">MTA</text>
<!-- Text -->
<!--  METADATA <id>4</id>  -->
<text xml:space="preserve" x="5155" y="6442" fill="#000000" font-family="Times" font-style="normal" font-weight="normal" font-size="240" text-anchor="middle">Remote MRA (SMTP)</text>
<!-- Text -->
<!--  METADATA <id>9</id>  -->
<text xml:space="preserve" x="5181" y="8095" fill="#000000" font-family="Times" font-style="normal" font-weight="normal" font-size="240" text-anchor="middle">MTA (SMTP)</text>
<!-- Text -->
<!--  METADATA <id>21</id>  -->
<text xml:space="preserve" x="14787" y="6614" fill="#000000" font-family="Times" font-style="normal" font-weight="normal" font-size="240" text-anchor="middle">StatusCollector</text>
<!-- Text -->
<!--  METADATA <id>28</id>  -->
<text xml:space="preserve" x="9670" y="8031" fill="#000000" font-family="Times" font-style="normal" font-weight="normal" font-size="240" text-anchor="middle">iPhoneStatus</text>
<!-- Text -->
<!--  METADATA <id>29</id>  -->
<text xml:space="preserve" x="12666" y="8031" fill="#000000" font-family="Times" font-style="normal" font-weight="normal" font-size="240" text-anchor="middle">DroidStatus</text>
<!-- Text -->
<!--  METADATA <id>34</id>  -->
<text xml:space="preserve" x="9685" y="10394" fill="#000000" font-family="Times" font-style="normal" font-weight="normal" font-size="240" text-anchor="middle">iVortexStatus app</text>
<!-- Text -->
<!--  METADATA <id>35</id>  -->
<text xml:space="preserve" x="12756" y="10394" fill="#000000" font-family="Times" font-style="normal" font-weight="normal" font-size="240" text-anchor="middle">droidVortexStatus</text>
<!-- Text -->
<!--  METADATA <id>42</id>  -->
<text xml:space="preserve" x="15842" y="10394" fill="#000000" font-family="Times" font-style="normal" font-weight="normal" font-size="240" text-anchor="middle">VortexStatus</text>
<!-- Text -->
<!--  METADATA <id>44</id>  -->
<text xml:space="preserve" x="15827" y="8031" fill="#000000" font-family="Times" font-style="normal" font-weight="normal" font-size="240" text-anchor="middle">httpStatus</text>
<!-- Text -->
<!--  METADATA <id>47</id>  -->
<text xml:space="preserve" x="14637" y="5425" fill="#000000" font-family="Times" font-style="normal" font-weight="normal" font-size="240" text-anchor="middle">IMAPMergingProxy</text>
</g>
</svg>
