<?xml version="1.0" encoding="UTF-8" standalone="no"?>
<!-- Created with Inkscape (http://www.inkscape.org/) -->

<svg
   xmlns:dc="http://purl.org/dc/elements/1.1/"
   xmlns:cc="http://creativecommons.org/ns#"
   xmlns:rdf="http://www.w3.org/1999/02/22-rdf-syntax-ns#"
   xmlns:svg="http://www.w3.org/2000/svg"
   xmlns="http://www.w3.org/2000/svg"
   xmlns:sodipodi="http://sodipodi.sourceforge.net/DTD/sodipodi-0.dtd"
   xmlns:inkscape="http://www.inkscape.org/namespaces/inkscape"
   id="svg4136"
   version="1.1"
   inkscape:version="0.91 r13725"
   width="1436"
   height="1500"
   viewBox="0 0 1436 1500"
   sodipodi:docname="MessageVortexLogo_big.svg">
  <metadata
     id="metadata4142">
    <rdf:RDF>
      <cc:Work
         rdf:about="">
        <dc:format>image/svg+xml</dc:format>
        <dc:type
           rdf:resource="http://purl.org/dc/dcmitype/StillImage" />
        <dc:title />
      </cc:Work>
    </rdf:RDF>
  </metadata>
  <defs
     id="defs4140">
    <inkscape:path-effect
       effect="spiro"
       id="path-effect4370"
       is_visible="true" />
    <inkscape:path-effect
       effect="spiro"
       id="path-effect4366"
       is_visible="true" />
    <inkscape:path-effect
       effect="spiro"
       id="path-effect4362"
       is_visible="true" />
    <inkscape:path-effect
       effect="spiro"
       id="path-effect4354"
       is_visible="true" />
    <inkscape:path-effect
       effect="spiro"
       id="path-effect4350"
       is_visible="true" />
    <inkscape:path-effect
       effect="spiro"
       id="path-effect4346"
       is_visible="true" />
    <inkscape:path-effect
       effect="spiro"
       id="path-effect4342"
       is_visible="true" />
    <inkscape:path-effect
       effect="spiro"
       id="path-effect4338"
       is_visible="true" />
    <inkscape:path-effect
       effect="spiro"
       id="path-effect4334"
       is_visible="true" />
    <inkscape:path-effect
       effect="spiro"
       id="path-effect4330"
       is_visible="true" />
    <inkscape:path-effect
       effect="spiro"
       id="path-effect4326"
       is_visible="true" />
    <inkscape:path-effect
       effect="spiro"
       id="path-effect4322"
       is_visible="true" />
    <inkscape:path-effect
       effect="spiro"
       id="path-effect4318"
       is_visible="true" />
    <inkscape:path-effect
       effect="spiro"
       id="path-effect4314"
       is_visible="true" />
    <inkscape:path-effect
       effect="spiro"
       id="path-effect4310"
       is_visible="true" />
    <inkscape:path-effect
       effect="spiro"
       id="path-effect4156"
       is_visible="true" />
    <inkscape:path-effect
       effect="spiro"
       id="path-effect4152"
       is_visible="true" />
  </defs>
  <sodipodi:namedview
     pagecolor="#ffffff"
     bordercolor="#666666"
     borderopacity="1"
     objecttolerance="10"
     gridtolerance="10"
     guidetolerance="10"
     inkscape:pageopacity="0"
     inkscape:pageshadow="2"
     inkscape:window-width="1200"
     inkscape:window-height="1858"
     id="namedview4138"
     showgrid="false"
     inkscape:zoom="0.646"
     inkscape:cx="400.32665"
     inkscape:cy="1179.6566"
     inkscape:window-x="-8"
     inkscape:window-y="-8"
     inkscape:window-maximized="1"
     inkscape:current-layer="svg4136" />
  <g
     id="g4164">
    <path
       sodipodi:nodetypes="csssssssssssccssssssssssssc"
       inkscape:connector-curvature="0"
       inkscape:original-d="m 357.66339,22.93601 c 0,0 72.64168,13.56058 103.20561,37.20594 19.22744,14.87505 40.06911,35.05016 46.26457,62.61487 3.33258,14.82713 0.24719,33.13675 -7.11764,45.3731 -28.67994,47.65052 -81.30454,63.76972 -126.69376,79.85662 -35.78307,12.6823 -73.89799,12.3954 -111.03497,11.797 -35.07955,-0.5652 -70.27405,-5.4591 -104.62912,-14.5193 -33.07012,-8.7215 -66.816414,-18.3034 -96.799724,-38.1135 -12.76646,-8.4348 -26.29023,-18.23708 -34.16461,-33.57605 -5.35711,-10.43542 -9.35224,-24.15637 -7.11763,-36.29847 4.34425,-23.60511 21.02948,-42.21452 37.01166,-55.35519 23.03344,-18.93826 52.252834,-21.44556 79.005664,-29.03878 14.77251,-4.19286 44.84105,-9.07462 44.84105,-9.07462 l 1.42352,8.16716 c 0,0 -18.28848,5.00281 -27.04698,9.07462 -27.61868,12.83986 -58.319974,22.39448 -79.717424,48.09548 -6.10549,7.33346 -11.56091,17.45889 -12.09997,28.13133 -0.75314,14.91088 4.63127,31.04379 12.81173,41.74325 20.48465,26.79247 52.961014,33.11277 81.140954,43.55817 34.19521,12.675 70.45089,17.3728 106.05264,16.3343 41.49846,-1.2105 84.71837,-5.0204 123.8467,-22.6865 25.30454,-11.4248 51.82789,-24.55491 69.041,-50.8179 5.87237,-8.9598 8.47349,-21.92885 7.82936,-33.5761 -0.88111,-15.93223 -7.05253,-31.95209 -15.65876,-43.55818 -16.40484,-22.12301 -41.60705,-30.05557 -63.34688,-42.6507 -6.01703,-3.48602 -13.17176,-4.09932 -18.50583,-9.07463 -3.67825,-3.43085 -8.54116,-13.61192 -8.54116,-13.61192 z"
       inkscape:path-effect="#path-effect4156"
       id="path4154"
       d="m 357.66339,22.93601 c 36.84398,3.197965 72.79629,16.158884 103.20561,37.20594 10.96635,7.590085 21.28823,16.278506 29.58314,26.72191 8.2949,10.443405 14.51658,22.73304 16.68143,35.89296 2.52244,15.3337 -0.58163,31.27467 -7.11764,45.3731 -10.89295,23.49652 -30.9216,41.91663 -53.54636,54.52073 -22.62475,12.6041 -47.8419,19.82456 -73.1474,25.33589 -36.45131,7.9388 -73.73681,12.55167 -111.03497,11.797 -35.27296,-0.7137 -70.33876,-6.22098 -104.62912,-14.5193 -33.8634,-8.19499 -67.469485,-19.30858 -96.799724,-38.1135 -13.587511,-8.71156 -26.466283,-19.38988 -34.16461,-33.57605 -5.973288,-11.00734 -8.536551,-23.85547 -7.11763,-36.29847 1.297059,-11.37435 5.854344,-22.26414 12.431285,-31.63441 6.576941,-9.370276 15.129801,-17.259752 24.580375,-23.72078 23.312772,-15.938129 51.414144,-23.020707 79.005664,-29.03878 14.90029,-3.249948 29.84957,-6.27528 44.84105,-9.07462 l 1.42352,8.16716 c -9.04528,2.935606 -18.06153,5.960677 -27.04698,9.07462 -14.89286,5.161182 -29.76748,10.596112 -43.60625,18.140895 C 97.36602,86.735089 84.514019,96.508 75.093606,109.14489 c -6.170246,8.277 -10.846399,17.88393 -12.09997,28.13133 -1.812474,14.81618 3.747323,29.88404 12.81173,41.74325 9.502427,12.43228 22.650257,21.72576 36.760844,28.48957 14.11058,6.76381 29.2345,11.13562 44.38011,15.0686 34.70564,9.01228 70.19848,15.90806 106.05264,16.3343 42.20249,0.50171 84.26848,-8.02817 123.8467,-22.6865 13.71512,-5.07958 27.24727,-10.93976 39.38513,-19.09937 12.13785,-8.1596 22.88884,-18.75265 29.65587,-31.71853 5.37454,-10.29781 8.12306,-21.96385 7.82936,-33.5761 -0.39628,-15.66836 -6.32404,-30.9678 -15.65876,-43.55818 -15.3801,-20.744206 -39.10227,-33.758648 -63.34688,-42.6507 -6.48687,-2.379151 -13.23595,-4.606046 -18.50583,-9.07463 -4.15045,-3.519371 -7.17767,-8.343796 -8.54116,-13.61192 z"
       style="fill:#000000;fill-opacity:1;fill-rule:evenodd;stroke:#000000;stroke-width:0.51917571px;stroke-linecap:butt;stroke-linejoin:miter;stroke-opacity:1" />
    <path
       sodipodi:nodetypes="cssssssssssssscssssssssssc"
       inkscape:connector-curvature="0"
       inkscape:original-d="m 178.2992,110.95982 c 0,0 -22.61953,-0.76676 -33.45285,2.72238 -12.6599,4.07744 -25.17636,10.82489 -35.58813,20.87163 -8.45404,8.15764 -16.814824,18.24718 -20.641124,30.85371 -2.65569,8.74971 -3.56586,19.48374 -0.71176,28.13132 4.49392,13.61608 15.877214,21.95758 25.623454,29.94628 12.788,10.4819 27.29041,17.7603 41.994,22.6865 30.48415,10.2132 62.4399,12.8061 93.95268,13.6119 39.00586,0.9975 78.88084,1.1776 116.72908,-10.8895 19.88777,-6.3408 40.16095,-15.5303 56.22923,-31.7612 8.62876,-8.716 17.10934,-20.0088 19.92938,-33.57607 1.40969,-6.78203 -0.36642,-14.22782 -2.13531,-20.87162 -3.34862,-12.57704 -7.95718,-25.53962 -15.65877,-34.48356 -14.67594,-17.04335 -35.23646,-23.85256 -54.09396,-31.76117 -6.67427,-2.79911 -20.64112,-5.44477 -20.64112,-5.44477 0,0 5.27239,8.99754 8.54115,12.70447 13.02933,14.77583 32.45598,19.91541 43.41753,37.20594 4.81887,7.60119 9.73155,17.56874 8.54117,27.22386 -1.96232,15.91611 -13.96923,27.74842 -24.19995,37.20592 -16.72839,15.4641 -37.59376,22.7163 -57.65278,29.0388 -23.39989,7.3756 -49.9214,8.6064 -74.02331,8.1672 -27.77922,-0.5062 -53.81058,-2.5615 -80.42919,-12.7045 -15.35368,-5.8505 -31.57708,-12.5495 -43.41752,-26.3164 -6.52401,-7.5855 -13.36252,-17.78341 -13.52349,-29.03878 -0.1084,-7.57905 4.49992,-14.40411 8.54115,-19.96417 14.22406,-19.56992 52.67044,-43.55817 52.67044,-43.55817 z"
       inkscape:path-effect="#path-effect4310"
       id="path4308"
       d="m 178.2992,110.95982 c -11.17758,-1.43966 -22.65512,-0.50562 -33.45285,2.72238 -13.29416,3.97431 -25.45909,11.38836 -35.58813,20.87163 -9.12892,8.54691 -16.753977,18.96771 -20.641124,30.85371 -2.964655,9.06523 -3.65877,19.06033 -0.71176,28.13132 2.065424,6.35744 5.840587,12.06691 10.371466,16.98159 4.530878,4.91468 9.813858,9.07757 15.251988,12.96469 12.98151,9.27904 27.03503,17.13227 41.994,22.6865 29.80527,11.06662 62.17192,12.71312 93.95268,13.6119 39.26062,1.11032 79.34161,1.14404 116.72908,-10.8895 20.65366,-6.64759 40.2914,-17.03879 56.22923,-31.7612 4.88419,-4.51172 9.43131,-9.44434 13.00655,-15.05047 3.57524,-5.60612 6.16099,-11.92026 6.92283,-18.5256 0.80573,-6.98586 -0.43587,-14.04789 -2.13531,-20.87162 -3.07411,-12.34338 -7.77591,-24.50008 -15.65877,-34.48356 -6.58305,-8.33731 -15.20712,-14.91558 -24.5393,-19.99078 -9.33218,-5.07521 -19.38493,-8.700552 -29.55466,-11.77039 -6.81354,-2.056737 -13.69961,-3.873164 -20.64112,-5.44477 2.26874,4.587532 5.14921,8.872066 8.54115,12.70447 6.33802,7.16105 14.32402,12.62339 22.11209,18.17289 7.78808,5.5495 15.57883,11.37426 21.30544,19.03305 5.82081,7.78478 9.30668,17.53373 8.54117,27.22386 -0.59971,7.59132 -3.75317,14.83343 -8.17008,21.03655 -4.41692,6.20311 -10.06377,11.4372 -16.02987,16.16937 -16.96883,13.45929 -36.80905,23.15386 -57.65278,29.0388 -23.97513,6.76904 -49.11366,8.53617 -74.02331,8.1672 -27.26704,-0.40389 -54.79699,-3.39618 -80.42919,-12.7045 -16.03629,-5.82357 -31.37616,-14.22995 -43.41752,-26.3164 -3.88935,-3.90392 -7.44085,-8.21018 -9.9635,-13.10955 -2.52265,-4.89937 -3.98186,-10.43472 -3.55999,-15.92923 0.56096,-7.30598 4.34086,-13.96004 8.54115,-19.96417 13.21892,-18.89586 31.62919,-34.12105 52.67044,-43.55817 z"
       style="fill:#000000;fill-opacity:1;fill-rule:evenodd;stroke:#000000;stroke-width:0.51917571px;stroke-linecap:butt;stroke-linejoin:miter;stroke-opacity:1" />
    <path
       sodipodi:nodetypes="cssssssssscsssssssc"
       inkscape:connector-curvature="0"
       inkscape:original-d="m 208.905,153.61053 c 0,0 -27.19689,4.79311 -39.14695,12.70447 -7.76505,5.14073 -16.75423,11.38434 -19.92936,21.77909 -2.16789,7.09725 -0.47613,15.83635 2.13529,22.68655 5.28019,13.8508 15.06174,25.196 25.62346,32.6686 14.69397,10.3963 32.40765,12.1747 49.11162,14.5194 27.59303,3.8732 55.86014,4.6444 83.27624,-0.9074 19.41581,-3.9318 41.34575,-6.3113 56.22925,-22.6866 7.79225,-8.5733 13.17267,-22.2761 13.52349,-35.391 0.32285,-12.06978 -3.72812,-25.36812 -10.67644,-33.5761 -8.58611,-10.14268 -33.45285,-13.61193 -33.45285,-13.61193 0,0 20.87514,18.30197 22.7764,32.66863 1.23885,9.36116 -3.35188,19.508 -8.54115,26.3164 -12.13785,15.925 -30.8412,21.59 -47.6881,27.2239 -14.98033,5.0096 -30.80068,6.5251 -46.26457,5.4447 -22.48668,-1.5709 -46.88031,-2.4747 -66.19393,-17.2418 -9.24839,-7.0712 -21.72823,-18.0821 -20.64112,-31.76112 0.85911,-10.81001 9.16844,-18.88084 19.87008,-23.95703 C 199.618,165.4131 208.905,153.61053 208.905,153.61053 Z"
       inkscape:path-effect="#path-effect4318"
       id="path4316"
       d="m 208.905,153.61053 c -13.7424,1.45202 -27.17081,5.80998 -39.14695,12.70447 -4.37452,2.51835 -8.58469,5.39362 -12.13185,8.98474 -3.54717,3.59111 -6.42045,7.9382 -7.79751,12.79435 -2.10799,7.43374 -0.57742,15.45154 2.13529,22.68655 4.93922,13.17329 13.89608,24.89685 25.62346,32.6686 14.37366,9.52544 31.95825,12.75924 49.11162,14.5194 27.67182,2.8395 55.65588,2.39537 83.27624,-0.9074 10.26274,-1.22719 20.5458,-2.86423 30.29977,-6.28329 9.75397,-3.41906 19.01789,-8.71827 25.92948,-16.40331 8.6207,-9.58541 13.11993,-22.50559 13.52349,-35.391 0.37616,-12.01051 -2.87013,-24.44072 -10.67644,-33.5761 -8.12579,-9.50925 -20.99622,-14.74622 -33.45285,-13.61193 6.48939,2.66284 12.18486,7.2279 16.19656,12.98195 4.01169,5.75406 6.32548,12.67682 6.57984,19.68668 0.34072,9.38958 -3.0043,18.72538 -8.54115,26.3164 -5.5079,7.55132 -13.08453,13.44064 -21.35808,17.78895 -8.27356,4.34831 -17.25069,7.21567 -26.33002,9.43495 -15.12418,3.69683 -30.69649,5.6501 -46.26457,5.4447 -23.05917,-0.30424 -46.34074,-5.50857 -66.19393,-17.2418 -5.79123,-3.42261 -11.35511,-7.46682 -15.38706,-12.8516 -2.01598,-2.69239 -3.62755,-5.70531 -4.58328,-8.93017 -0.95573,-3.22486 -1.2446,-6.66516 -0.67078,-9.97935 0.90789,-5.24367 3.9177,-9.93017 7.59798,-13.7741 3.68028,-3.84393 8.03812,-6.95901 12.2721,-10.18293 6.94114,-5.28525 13.61533,-10.92106 19.98864,-16.87876 z"
       style="fill:#000000;fill-opacity:1;fill-rule:evenodd;stroke:#000000;stroke-width:0.51917571px;stroke-linecap:butt;stroke-linejoin:miter;stroke-opacity:1" />
    <path
       sodipodi:nodetypes="csssssccsssssc"
       inkscape:connector-curvature="0"
       inkscape:original-d="m 189.6874,270.67314 c 0,0 18.65914,-1.9749 27.04698,-2.7224 14.59358,-1.3005 33.79127,4.4558 48.39986,5.4448 23.47427,1.5892 42.17021,2.9485 65.48217,-0.9075 25.06061,-4.1452 49.87449,-11.3787 74.02332,-20.8716 15.87218,-6.2394 31.71229,-13.386 46.26455,-23.594 13.84629,-9.7129 38.43522,-35.39104 38.43522,-35.39104 l -10.67643,35.39104 c 0,0 -13.42852,20.2207 -22.06469,27.2238 -13.49628,10.9443 -29.36338,16.6352 -44.84103,21.7791 -23.66927,7.8663 -48.17374,11.9644 -72.59979,13.6119 -29.40231,1.9833 -58.90301,-1.6392 -88.25857,-4.5373 -14.52401,-1.4338 -28.96935,-3.98 -43.41752,-6.3522 -4.9917,-0.8196 -17.79407,-9.0746 -17.79407,-9.0746 z"
       inkscape:path-effect="#path-effect4322"
       id="path4320"
       d="m 189.6874,270.67314 c 8.87747,-1.90679 17.96759,-2.82175 27.04698,-2.7224 16.24532,0.17776 32.26105,3.5791 48.39986,5.4448 21.74578,2.51388 43.81771,2.2309 65.48217,-0.9075 25.43249,-3.68425 50.18592,-11.27142 74.02332,-20.8716 16.08741,-6.47898 31.86938,-13.92132 46.26455,-23.594 14.51176,-9.75103 27.52256,-21.73133 38.43522,-35.39104 l -10.67643,35.39104 c -5.31253,10.50229 -12.89013,19.85166 -22.06469,27.2238 -13.02995,10.47011 -28.89769,16.75787 -44.84103,21.7791 -23.54915,7.41662 -47.93942,12.4139 -72.59979,13.6119 -29.44535,1.43045 -58.84563,-2.54891 -88.25857,-4.5373 -14.64131,-0.98979 -29.55701,-1.53204 -43.41752,-6.3522 -6.30841,-2.19382 -12.31399,-5.25654 -17.79407,-9.0746 z"
       style="fill:#000000;fill-opacity:1;fill-rule:evenodd;stroke:#000000;stroke-width:0.51917571px;stroke-linecap:butt;stroke-linejoin:miter;stroke-opacity:1" />
    <path
       sodipodi:nodetypes="csssssssscssssssc"
       inkscape:connector-curvature="0"
       inkscape:original-d="m 100.0053,190.81648 c 0,0 -10.796184,21.87766 -9.252914,33.57606 1.70851,12.9511 11.351814,22.3741 19.217594,30.8537 18.00158,19.4065 40.11443,32.1463 61.92335,43.5582 33.97805,17.7796 69.77894,30.7674 106.05264,38.1134 29.07888,5.8889 58.92853,7.8286 88.25858,4.5373 27.58307,-3.0952 56.48341,-6.6238 81.14094,-22.6865 7.93051,-5.1662 14.51998,-13.6668 19.92937,-22.6866 2.90014,-4.8358 4.74927,-10.625 6.40583,-16.3343 1.01818,-3.5091 2.1353,-10.8895 2.1353,-10.8895 0,0 -21.29723,14.465 -32.74107,19.0567 -36.35457,14.5867 -74.35578,25.2238 -112.45851,26.3164 -31.3644,0.8993 -62.73012,-7.0251 -93.24091,-16.3344 -31.74232,-9.685 -63.64143,-21.4674 -92.52915,-40.8357 -9.9118,-6.6456 -18.65007,-15.9619 -27.04698,-25.409 -4.90743,-5.5212 -10.39916,-10.8169 -13.52349,-18.1492 -2.91183,-6.8336 -4.27058,-22.68656 -4.27058,-22.68656 z"
       inkscape:path-effect="#path-effect4326"
       id="path4324"
       d="m 100.0053,190.81648 c -8.118811,8.90275 -11.665098,21.77117 -9.252914,33.57606 2.461642,12.04693 10.510464,22.17188 19.217594,30.8537 17.93703,17.88489 39.54936,31.68339 61.92335,43.5582 33.3151,17.68172 68.92684,31.464 106.05264,38.1134 29.05966,5.20472 58.7728,6.00073 88.25858,4.5373 14.24325,-0.70691 28.52524,-1.9477 42.39211,-5.27637 13.86686,-3.32867 27.36654,-8.81866 38.74883,-17.41013 8.09459,-6.10988 15.0674,-13.78637 19.92937,-22.6866 2.81061,-5.14506 4.90475,-10.66703 6.40583,-16.3343 0.94775,-3.5782 1.66154,-7.21835 2.1353,-10.8895 -10.46052,7.09139 -21.4085,13.46358 -32.74107,19.0567 -34.84983,17.19992 -73.6005,26.95109 -112.45851,26.3164 -31.63867,-0.51677 -62.76812,-7.80904 -93.24091,-16.3344 -32.67477,-9.14141 -65.66028,-20.11687 -92.52915,-40.8357 -9.80758,-7.56272 -18.64247,-16.31243 -27.04698,-25.409 -5.13855,-5.56168 -10.18747,-11.35155 -13.52349,-18.1492 -3.43176,-6.99271 -4.924889,-14.92467 -4.27058,-22.68656 z"
       style="fill:#000000;fill-opacity:1;fill-rule:evenodd;stroke:#000000;stroke-width:0.51917571px;stroke-linecap:butt;stroke-linejoin:miter;stroke-opacity:1" />
    <path
       sodipodi:nodetypes="cssssscssssssssc"
       inkscape:connector-curvature="0"
       inkscape:original-d="m 117.08761,271.58054 c 0,0 17.85154,8.8897 26.33521,14.5194 16.06221,10.6588 29.77266,26.7659 46.26458,36.2985 27.81787,16.0792 57.64408,26.5508 87.54681,34.4836 27.3439,7.254 55.36999,13.2518 83.27624,11.797 18.59644,-0.9696 37.25701,-5.7064 54.80574,-13.6119 12.90889,-5.8154 36.29986,-24.5015 36.29986,-24.5015 0,0 -2.17724,22.73 -7.11759,31.7611 -4.37062,7.9896 -11.60362,13.0652 -18.50584,17.2418 -10.18955,6.1658 -21.51975,9.4382 -32.74109,10.8895 -31.20142,4.0356 -60.5717,1.6192 -91.81739,-1.8149 -21.90163,-2.4071 -46.32237,-7.5635 -67.61745,-14.5193 -20.31506,-6.6357 -39.91939,-17.2244 -58.36454,-29.9463 -10.9411,-7.5462 -21.00248,-17.1432 -30.6058,-27.2239 -7.64246,-8.0223 -15.73367,-15.9253 -21.35288,-26.3164 -3.07688,-5.6897 -6.40586,-19.0567 -6.40586,-19.0567 z"
       inkscape:path-effect="#path-effect4330"
       id="path4328"
       d="m 117.08761,271.58054 c 9.22811,3.9565 18.0637,8.82783 26.33521,14.5194 16.15492,11.1161 30.05116,25.2679 46.26458,36.2985 26.06898,17.73571 56.99687,26.68304 87.54681,34.4836 27.27298,6.96383 55.16702,13.2742 83.27624,11.797 18.91515,-0.99403 37.66006,-5.56227 54.80574,-13.6119 13.26738,-6.22883 25.56093,-14.52667 36.29986,-24.5015 1.47643,10.98091 -1.09611,22.46046 -7.11759,31.7611 -4.62391,7.14198 -11.16391,12.94245 -18.50584,17.2418 -9.97998,5.84416 -21.33946,8.9512 -32.74109,10.8895 -30.3011,5.15126 -61.3754,2.4251 -91.81739,-1.8149 -22.86493,-3.18466 -45.7095,-7.23995 -67.61745,-14.5193 -20.84054,-6.92468 -40.78045,-16.79034 -58.36454,-29.9463 -10.94184,-8.1864 -20.91272,-17.59139 -30.6058,-27.2239 -8.04428,-7.99402 -16.02361,-16.30572 -21.35288,-26.3164 -3.16348,-5.9424 -5.33756,-12.41002 -6.40586,-19.0567 z"
       style="fill:#000000;fill-opacity:1;fill-rule:evenodd;stroke:#000000;stroke-width:0.51917571px;stroke-linecap:butt;stroke-linejoin:miter;stroke-opacity:1" />
    <path
       sodipodi:nodetypes="csssscssssc"
       inkscape:connector-curvature="0"
       inkscape:original-d="m 196.09327,380.47604 c 0,0 21.02652,3.9661 31.31755,7.2597 14.99104,4.7979 21.42587,9.1622 36.2999,14.5193 8.69411,3.1314 25.17982,10.592 34.16461,11.7971 16.28754,2.1846 32.7518,2.7825 49.11162,1.8149 11.16164,-0.6602 33.45285,-6.3522 33.45285,-6.3522 0,0 -17.487,21.3614 -27.75875,27.2238 -12.02765,6.8645 -25.26348,8.5652 -38.43518,9.0747 -14.93262,0.5775 -29.6803,-5.1415 -44.12929,-9.9821 -13.13571,-4.4007 -26.63861,-8.6605 -38.43518,-17.2418 -13.45632,-9.7886 -35.58813,-38.1134 -35.58813,-38.1134 z"
       inkscape:path-effect="#path-effect4334"
       id="path4332"
       d="m 196.09327,380.47604 c 10.62664,1.48642 21.12074,3.91905 31.31755,7.2597 12.38852,4.05869 24.29444,9.43823 36.2999,14.5193 11.11102,4.70252 22.38761,9.1759 34.16461,11.7971 16.06335,3.5752 32.75497,3.62413 49.11162,1.8149 11.2927,-1.2491 22.4883,-3.37498 33.45285,-6.3522 -6.51908,11.39196 -16.2421,20.92761 -27.75875,27.2238 -11.68475,6.38809 -25.12259,9.41542 -38.43518,9.0747 -15.13965,-0.38748 -29.82976,-4.99383 -44.12929,-9.9821 -13.28878,-4.63568 -26.55769,-9.69153 -38.43518,-17.2418 -14.82709,-9.42527 -27.19982,-22.67596 -35.58813,-38.1134 z"
       style="fill:#000000;fill-opacity:1;fill-rule:evenodd;stroke:#000000;stroke-width:0.51917571px;stroke-linecap:butt;stroke-linejoin:miter;stroke-opacity:1" />
    <path
       sodipodi:nodetypes="cssscssssc"
       inkscape:connector-curvature="0"
       inkscape:original-d="m 206.7697,416.77454 c 0,0 18.78108,16.2421 29.18227,21.7791 16.09143,8.5661 33.28577,13.9826 50.53516,17.2417 14.32384,2.7064 28.94074,2.221 43.41752,1.8149 6.18534,-0.1735 18.50583,-1.8149 18.50583,-1.8149 0,0 -15.34084,18.5899 -24.9117,23.594 -12.63485,6.6061 -26.92515,7.9492 -40.57047,7.2597 -10.92829,-0.5522 -21.91237,-3.7773 -32.02932,-9.0745 -11.14325,-5.8346 -22.60141,-13.0239 -30.60579,-24.5015 -6.98113,-10.0105 -13.5235,-36.2985 -13.5235,-36.2985 z"
       inkscape:path-effect="#path-effect4338"
       id="path4336"
       d="m 206.7697,416.77454 c 8.72272,8.49014 18.56114,15.83268 29.18227,21.7791 15.61094,8.74005 32.86647,14.42968 50.53516,17.2417 14.33355,2.28122 28.92987,2.68815 43.41752,1.8149 6.18843,-0.37301 12.36284,-0.97855 18.50583,-1.8149 -5.89892,9.97209 -14.63406,18.24518 -24.9117,23.594 -12.3556,6.43025 -26.70272,8.56142 -40.57047,7.2597 -11.10674,-1.04255 -21.9833,-4.22432 -32.02932,-9.0745 -11.88301,-5.73707 -22.72465,-13.91814 -30.60579,-24.5015 -7.81606,-10.49597 -12.56665,-23.24704 -13.5235,-36.2985 z"
       style="fill:#000000;fill-opacity:1;fill-rule:evenodd;stroke:#000000;stroke-width:0.51917571px;stroke-linecap:butt;stroke-linejoin:miter;stroke-opacity:1" />
    <path
       sodipodi:nodetypes="csssscssc"
       inkscape:connector-curvature="0"
       inkscape:original-d="m 310.68705,497.53864 c 0,0 -15.64396,19.664 -25.62345,24.5014 -10.6817,5.1778 -23.01443,6.8212 -34.16461,3.6299 -10.16462,-2.9092 -20.84056,-7.4707 -29.18226,-15.4268 -5.24076,-4.9986 -9.38212,-14.1881 -12.09998,-21.7791 -2.16972,-6.0601 -0.71175,-19.9642 -0.71175,-19.9642 0,0 16.55837,12.9948 25.62345,17.2418 12.31889,5.7713 25.40338,8.9069 38.43518,10.8895 12.48812,1.9 37.72342,0.9075 37.72342,0.9075 z"
       inkscape:path-effect="#path-effect4342"
       id="path4340"
       d="m 310.68705,497.53864 c -5.40493,10.77214 -14.62024,19.58391 -25.62345,24.5014 -10.62086,4.74661 -22.7452,5.85026 -34.16461,3.6299 -10.97157,-2.13328 -21.43179,-7.37345 -29.18226,-15.4268 -5.82431,-6.05192 -10.05527,-13.63247 -12.09998,-21.7791 -1.63305,-6.50648 -1.87732,-13.35795 -0.71175,-19.9642 7.62235,6.97629 16.28988,12.8086 25.62345,17.2418 12.07645,5.73601 25.18572,9.10222 38.43518,10.8895 12.4904,1.68489 25.16645,1.98983 37.72342,0.9075 z"
       style="fill:#000000;fill-opacity:1;fill-rule:evenodd;stroke:#000000;stroke-width:0.51917571px;stroke-linecap:butt;stroke-linejoin:miter;stroke-opacity:1" />
    <path
       sodipodi:nodetypes="csscsscssc"
       inkscape:connector-curvature="0"
       inkscape:original-d="m 282.92831,541.09674 c 0,0 -18.98809,3.7532 -28.4705,2.7224 -7.7975,-0.8477 -15.23458,-4.5964 -22.77641,-7.2597 -5.49701,-1.9412 -16.37054,-6.3522 -16.37054,-6.3522 0,0 6.27841,19.9371 10.67644,29.0388 4.43136,9.1706 10.2201,17.1664 15.65878,25.4089 4.10962,6.2283 12.81173,18.1493 12.81173,18.1493 0,0 1.7849,-16.543 4.98234,-23.5941 3.52669,-7.7771 10.67008,-11.9175 14.94701,-19.0567 3.48319,-5.8142 8.54115,-19.0567 8.54115,-19.0567 z"
       inkscape:path-effect="#path-effect4346"
       id="path4344"
       d="m 282.92831,541.09674 c -9.03462,3.37174 -18.96062,4.32088 -28.4705,2.7224 -7.87368,-1.32345 -15.34923,-4.32996 -22.77641,-7.2597 -5.44497,-2.14783 -10.90193,-4.26528 -16.37054,-6.3522 2.39746,10.05531 5.98948,19.82525 10.67644,29.0388 4.51423,8.874 10.02227,17.20184 15.65878,25.4089 4.19244,6.10442 8.46349,12.15486 12.81173,18.1493 -0.92361,-8.12579 0.85225,-16.53549 4.98234,-23.5941 4.08178,-6.97604 10.25759,-12.47374 14.94701,-19.0567 4.06521,-5.7067 6.98657,-12.22475 8.54115,-19.0567 z"
       style="fill:#000000;fill-opacity:1;fill-rule:evenodd;stroke:#000000;stroke-width:0.51917571px;stroke-linecap:butt;stroke-linejoin:miter;stroke-opacity:1" />
    <path
       sodipodi:nodetypes="csssssc"
       inkscape:connector-curvature="0"
       inkscape:original-d="m 206.7697,190.81647 c 0,0 26.36875,-5.17205 41.994,-7.2597 13.93975,-1.86245 28.33015,-1.25861 41.994,2.72239 9.53641,2.77846 27.87115,8.42319 28.47051,20.87158 0.90512,18.7992 -21.97216,22.6357 -36.2999,27.2239 -15.88404,5.0866 -37.32354,0.03 -52.67044,-7.2597 -10.90301,-5.179 -23.48817,-36.29847 -23.48817,-36.29847 z"
       inkscape:path-effect="#path-effect4350"
       id="path4348"
       d="m 206.7697,190.81647 c 13.64716,-4.06147 27.77538,-6.50388 41.994,-7.2597 14.04043,-0.74635 28.17066,0.15219 41.994,2.72239 6.19836,1.15247 12.45359,2.68778 17.82529,5.98818 2.68585,1.65021 5.12342,3.73776 7.01076,6.26261 1.88735,2.52486 3.21218,5.49691 3.63446,8.62079 0.56876,4.20747 -0.53356,8.55935 -2.73224,12.19144 -2.19868,3.63208 -5.44624,6.56671 -9.10505,8.72062 -7.31763,4.30783 -16.01043,5.49593 -24.46261,6.31184 -8.97379,0.86627 -18.02479,1.4117 -26.99799,0.53933 -8.9732,-0.87236 -17.91063,-3.21281 -25.67245,-7.79903 -12.86186,-7.59967 -21.82548,-21.45199 -23.48817,-36.29847 z"
       style="fill:#000000;fill-opacity:1;fill-rule:evenodd;stroke:#000000;stroke-width:0.51917571px;stroke-linecap:butt;stroke-linejoin:miter;stroke-opacity:1" />
    <g
       id="g4181">
      <path
         style="fill:#ff7f2a;fill-rule:evenodd;stroke:#000000;stroke-width:0.51917571px;stroke-linecap:butt;stroke-linejoin:miter;stroke-opacity:1"
         d="m 216.02262,72.84642 c 3.18785,19.147659 3.23912,38.6703 2.84705,58.07756 -0.0672,3.32731 -0.14719,6.65735 0,9.98208 0.0598,1.3499 0.15975,2.71335 0.56783,4.00147 0.40809,1.28813 1.15434,2.50959 2.27922,3.25823 1.124,0.74805 2.53458,0.96504 3.8812,0.8672 1.34662,-0.0978 2.65262,-0.48713 3.94819,-0.8672 3.52547,-1.03423 7.07045,-2.01854 10.67644,-2.72239 7.01995,-1.37023 14.20202,-1.66503 21.35288,-1.81492 8.30263,-0.17403 16.60875,-0.15784 24.9117,0 7.38813,0.14045 14.81245,0.3972 22.06464,1.81493 5.90899,1.15515 11.7842,3.08581 17.79406,2.72238 2.02109,-0.12222 4.11622,-0.54607 5.69411,-1.81493 1.41032,-1.13411 2.25863,-2.82589 2.84705,-4.53731 1.39325,-4.05225 1.54656,-8.42115 1.42352,-12.70446 -0.16563,-5.76604 -0.8064,-11.50647 -1.42352,-17.24178 -1.53141,-14.232389 -2.92123,-28.485342 -4.98234,-42.65072 -0.96794,-6.652367 -2.08391,-13.285199 -2.84705,-19.96416 -0.18997,-1.662587 -0.36065,-3.340631 -0.86059,-4.937613 -0.49993,-1.596982 -1.36187,-3.129815 -2.69823,-4.137007 -0.89806,-0.676855 -1.97236,-1.089024 -3.06778,-1.343415 -1.09541,-0.25439 -2.21923,-0.358274 -3.33808,-0.471505 -3.7904,-0.383599 -7.57852,-0.882325 -11.3882,-0.90746 -5.49742,-0.03627 -10.94745,0.913235 -16.37054,1.81492 -19.30111,3.209149 -38.74422,5.859886 -57.65278,10.88955 -2.33657,0.621527 -4.67321,1.28248 -6.8826,2.264554 -2.20939,0.982074 -4.30013,2.300996 -5.92913,4.087676 -2.0361,2.233181 -3.28022,5.157976 -3.55881,8.16716 -0.25267,2.729285 0.26162,5.463419 0.71176,8.16716 z"
         id="path4352"
         inkscape:path-effect="#path-effect4354"
         inkscape:original-d="m 216.02262,72.84642 c 0.64752,19.42653 2.53664,39.98543 2.84705,58.07756 0.0522,3.32669 -0.59961,6.74373 0,9.98208 0.48755,2.63316 1.04191,5.83732 2.84705,7.2597 2.22003,1.7493 5.2323,0.32787 7.82939,0 3.61163,-0.45595 7.07871,-2.11346 10.67644,-2.72239 7.07139,-1.19686 14.22069,-1.64593 21.35288,-1.81492 8.06874,-0.19118 16.84157,0.0146 24.9117,0 7.35869,-0.0133 14.72881,1.07573 22.06464,1.81493 6.26211,0.631 11.5148,2.94256 17.79406,2.72238 1.95571,-0.0686 4.04752,-0.4678 5.69411,-1.81493 1.27856,-1.04604 2.24384,-2.75968 2.84705,-4.53731 1.33227,-3.92613 1.36142,-8.42738 1.42352,-12.70446 0.0839,-5.77802 -0.99803,-11.48829 -1.42352,-17.24178 -0.18127,-15.3155 -2.73691,-29.85753 -4.98234,-42.65072 -0.9657,-5.60567 -1.12437,-14.66174 -2.84705,-19.96416 -1.0151,-3.12448 -1.46803,-6.99335 -3.55882,-9.07462 -1.7241,-1.71626 -4.24005,-1.42426 -6.40586,-1.81492 -3.76597,-0.67929 -7.58501,-0.96643 -11.3882,-0.90746 -5.47704,0.0849 -10.91976,1.12678 -16.37054,1.81492 -19.05541,2.65841 -41.74802,5.77093 -57.65278,10.88955 -3.56612,1.17447 -9.90691,3.46515 -12.81173,6.35223 -1.92647,1.91471 -3.07779,5.11384 -3.55881,8.16716 -0.42308,2.6855 0.5366,5.43713 0.71176,8.16716 z"
         inkscape:connector-curvature="0"
         sodipodi:nodetypes="ccsssssssssssccssssccssc" />
      <path
         style="fill:none;fill-rule:evenodd;stroke:#000000;stroke-width:2.28437304;stroke-linecap:round;stroke-linejoin:round;stroke-miterlimit:4;stroke-dasharray:none;stroke-opacity:1"
         d="m 224.56377,62.86433 46.97634,44.46564 47.6881,-59.89249"
         id="path4360"
         inkscape:path-effect="#path-effect4362"
         inkscape:original-d="m 224.56377,62.86433 46.97634,44.46564 47.6881,-59.89249"
         inkscape:connector-curvature="0" />
      <path
         style="fill:none;fill-rule:evenodd;stroke:#000000;stroke-width:2.28437304;stroke-linecap:round;stroke-linejoin:round;stroke-miterlimit:4;stroke-dasharray:none;stroke-opacity:1"
         d="M 226.69906,136.36875 254.4578,91.90312"
         id="path4364"
         inkscape:path-effect="#path-effect4366"
         inkscape:original-d="M 226.69906,136.36875 254.4578,91.90312"
         inkscape:connector-curvature="0" />
      <path
         style="fill:none;fill-rule:evenodd;stroke:#000000;stroke-width:2.28437304;stroke-linecap:round;stroke-linejoin:round;stroke-miterlimit:4;stroke-dasharray:none;stroke-opacity:1"
         d="m 285.77536,90.08819 40.57047,45.3731"
         id="path4368"
         inkscape:path-effect="#path-effect4370"
         inkscape:original-d="m 285.77536,90.08819 40.57047,45.3731"
         inkscape:connector-curvature="0" />
    </g>
  </g>
</svg>
