<?xml version="1.0" encoding="utf-8"?>
<!-- Generator: Adobe Illustrator 25.2.3, SVG Export Plug-In . SVG Version: 6.00 Build 0)  -->
<svg version="1.1"
	 id="svg4136" inkscape:version="0.91 r13725" xmlns:cc="http://creativecommons.org/ns#" xmlns:dc="http://purl.org/dc/elements/1.1/" xmlns:inkscape="http://www.inkscape.org/namespaces/inkscape" xmlns:rdf="http://www.w3.org/1999/02/22-rdf-syntax-ns#" xmlns:sodipodi="http://sodipodi.sourceforge.net/DTD/sodipodi-0.dtd" xmlns:svg="http://www.w3.org/2000/svg"
	 xmlns="http://www.w3.org/2000/svg" xmlns:xlink="http://www.w3.org/1999/xlink" x="0px" y="0px" viewBox="0 0 708.7 396.9"
	 style="enable-background:new 0 0 708.7 396.9;" xml:space="preserve">
<style type="text/css">
	.st0{stroke:#000000;stroke-width:0.5192;}
	.st1{fill:#1D1D1B;stroke:#000000;stroke-width:0.5192;}
	.st2{fill:none;stroke:#FFFFFF;stroke-width:2.2844;stroke-linecap:round;stroke-linejoin:round;}
</style>
<defs>
	<inkscape:path-effect  effect="spiro" id="path-effect4370" is_visible="true"></inkscape:path-effect>
	<inkscape:path-effect  effect="spiro" id="path-effect4366" is_visible="true"></inkscape:path-effect>
	<inkscape:path-effect  effect="spiro" id="path-effect4362" is_visible="true"></inkscape:path-effect>
	<inkscape:path-effect  effect="spiro" id="path-effect4354" is_visible="true"></inkscape:path-effect>
	<inkscape:path-effect  effect="spiro" id="path-effect4350" is_visible="true"></inkscape:path-effect>
	<inkscape:path-effect  effect="spiro" id="path-effect4346" is_visible="true"></inkscape:path-effect>
	<inkscape:path-effect  effect="spiro" id="path-effect4342" is_visible="true"></inkscape:path-effect>
	<inkscape:path-effect  effect="spiro" id="path-effect4338" is_visible="true"></inkscape:path-effect>
	<inkscape:path-effect  effect="spiro" id="path-effect4334" is_visible="true"></inkscape:path-effect>
	<inkscape:path-effect  effect="spiro" id="path-effect4330" is_visible="true"></inkscape:path-effect>
	<inkscape:path-effect  effect="spiro" id="path-effect4326" is_visible="true"></inkscape:path-effect>
	<inkscape:path-effect  effect="spiro" id="path-effect4322" is_visible="true"></inkscape:path-effect>
	<inkscape:path-effect  effect="spiro" id="path-effect4318" is_visible="true"></inkscape:path-effect>
	<inkscape:path-effect  effect="spiro" id="path-effect4314" is_visible="true"></inkscape:path-effect>
	<inkscape:path-effect  effect="spiro" id="path-effect4310" is_visible="true"></inkscape:path-effect>
	<inkscape:path-effect  effect="spiro" id="path-effect4156" is_visible="true"></inkscape:path-effect>
	<inkscape:path-effect  effect="spiro" id="path-effect4152" is_visible="true"></inkscape:path-effect>
</defs>
<sodipodi:namedview  bordercolor="#666666" borderopacity="1" gridtolerance="10" guidetolerance="10" id="namedview4138" inkscape:current-layer="svg4136" inkscape:cx="400.32665" inkscape:cy="1179.6566" inkscape:pageopacity="0" inkscape:pageshadow="2" inkscape:window-height="1858" inkscape:window-maximized="1" inkscape:window-width="1200" inkscape:window-x="-8" inkscape:window-y="-8" inkscape:zoom="0.646" objecttolerance="10" pagecolor="#ffffff" showgrid="false">
	</sodipodi:namedview>
<g id="g4164">
	
		<path id="path4154" inkscape:connector-curvature="0" inkscape:original-d="m 357.66339,22.93601 c 0,0 72.64168,13.56058 103.20561,37.20594 19.22744,14.87505 40.06911,35.05016 46.26457,62.61487 3.33258,14.82713 0.24719,33.13675 -7.11764,45.3731 -28.67994,47.65052 -81.30454,63.76972 -126.69376,79.85662 -35.78307,12.6823 -73.89799,12.3954 -111.03497,11.797 -35.07955,-0.5652 -70.27405,-5.4591 -104.62912,-14.5193 -33.07012,-8.7215 -66.816414,-18.3034 -96.799724,-38.1135 -12.76646,-8.4348 -26.29023,-18.23708 -34.16461,-33.57605 -5.35711,-10.43542 -9.35224,-24.15637 -7.11763,-36.29847 4.34425,-23.60511 21.02948,-42.21452 37.01166,-55.35519 23.03344,-18.93826 52.252834,-21.44556 79.005664,-29.03878 14.77251,-4.19286 44.84105,-9.07462 44.84105,-9.07462 l 1.42352,8.16716 c 0,0 -18.28848,5.00281 -27.04698,9.07462 -27.61868,12.83986 -58.319974,22.39448 -79.717424,48.09548 -6.10549,7.33346 -11.56091,17.45889 -12.09997,28.13133 -0.75314,14.91088 4.63127,31.04379 12.81173,41.74325 20.48465,26.79247 52.961014,33.11277 81.140954,43.55817 34.19521,12.675 70.45089,17.3728 106.05264,16.3343 41.49846,-1.2105 84.71837,-5.0204 123.8467,-22.6865 25.30454,-11.4248 51.82789,-24.55491 69.041,-50.8179 5.87237,-8.9598 8.47349,-21.92885 7.82936,-33.5761 -0.88111,-15.93223 -7.05253,-31.95209 -15.65876,-43.55818 -16.40484,-22.12301 -41.60705,-30.05557 -63.34688,-42.6507 -6.01703,-3.48602 -13.17176,-4.09932 -18.50583,-9.07463 -3.67825,-3.43085 -8.54116,-13.61192 -8.54116,-13.61192 z" inkscape:path-effect="#path-effect4156" sodipodi:nodetypes="csssssssssssccssssssssssssc" class="st0" d="
		M259,6.1c9.7,0.8,19.3,4.3,27.3,9.8c2.9,2,5.6,4.3,7.8,7.1c2.2,2.8,3.8,6,4.4,9.5c0.7,4.1-0.2,8.3-1.9,12
		c-2.9,6.2-8.2,11.1-14.2,14.4c-6,3.3-12.7,5.2-19.4,6.7c-9.6,2.1-19.5,3.3-29.4,3.1c-9.3-0.2-18.6-1.6-27.7-3.8
		c-9-2.2-17.9-5.1-25.6-10.1c-3.6-2.3-7-5.1-9-8.9c-1.6-2.9-2.3-6.3-1.9-9.6c0.3-3,1.5-5.9,3.3-8.4s4-4.6,6.5-6.3
		c6.2-4.2,13.6-6.1,20.9-7.7c3.9-0.9,7.9-1.7,11.9-2.4l0.4,2.2c-2.4,0.8-4.8,1.6-7.2,2.4c-3.9,1.4-7.9,2.8-11.5,4.8
		s-7.1,4.6-9.6,7.9c-1.6,2.2-2.9,4.7-3.2,7.4c-0.5,3.9,1,7.9,3.4,11c2.5,3.3,6,5.7,9.7,7.5s7.7,2.9,11.7,4
		c9.2,2.4,18.6,4.2,28.1,4.3c11.2,0.1,22.3-2.1,32.8-6c3.6-1.3,7.2-2.9,10.4-5.1c3.2-2.2,6.1-5,7.8-8.4c1.4-2.7,2.1-5.8,2.1-8.9
		c-0.1-4.1-1.7-8.2-4.1-11.5c-4.1-5.5-10.3-8.9-16.8-11.3c-1.7-0.6-3.5-1.2-4.9-2.4C260.2,8.7,259.4,7.5,259,6.1z"/>
	
		<path id="path4308" inkscape:connector-curvature="0" inkscape:original-d="m 178.2992,110.95982 c 0,0 -22.61953,-0.76676 -33.45285,2.72238 -12.6599,4.07744 -25.17636,10.82489 -35.58813,20.87163 -8.45404,8.15764 -16.814824,18.24718 -20.641124,30.85371 -2.65569,8.74971 -3.56586,19.48374 -0.71176,28.13132 4.49392,13.61608 15.877214,21.95758 25.623454,29.94628 12.788,10.4819 27.29041,17.7603 41.994,22.6865 30.48415,10.2132 62.4399,12.8061 93.95268,13.6119 39.00586,0.9975 78.88084,1.1776 116.72908,-10.8895 19.88777,-6.3408 40.16095,-15.5303 56.22923,-31.7612 8.62876,-8.716 17.10934,-20.0088 19.92938,-33.57607 1.40969,-6.78203 -0.36642,-14.22782 -2.13531,-20.87162 -3.34862,-12.57704 -7.95718,-25.53962 -15.65877,-34.48356 -14.67594,-17.04335 -35.23646,-23.85256 -54.09396,-31.76117 -6.67427,-2.79911 -20.64112,-5.44477 -20.64112,-5.44477 0,0 5.27239,8.99754 8.54115,12.70447 13.02933,14.77583 32.45598,19.91541 43.41753,37.20594 4.81887,7.60119 9.73155,17.56874 8.54117,27.22386 -1.96232,15.91611 -13.96923,27.74842 -24.19995,37.20592 -16.72839,15.4641 -37.59376,22.7163 -57.65278,29.0388 -23.39989,7.3756 -49.9214,8.6064 -74.02331,8.1672 -27.77922,-0.5062 -53.81058,-2.5615 -80.42919,-12.7045 -15.35368,-5.8505 -31.57708,-12.5495 -43.41752,-26.3164 -6.52401,-7.5855 -13.36252,-17.78341 -13.52349,-29.03878 -0.1084,-7.57905 4.49992,-14.40411 8.54115,-19.96417 14.22406,-19.56992 52.67044,-43.55817 52.67044,-43.55817 z" inkscape:path-effect="#path-effect4310" sodipodi:nodetypes="cssssssssssssscssssssssssc" class="st0" d="
		M211.5,29.4c-3-0.4-6-0.1-8.9,0.7c-3.5,1.1-6.7,3-9.4,5.5c-2.4,2.3-4.4,5-5.5,8.2c-0.8,2.4-1,5-0.2,7.4c0.5,1.7,1.5,3.2,2.7,4.5
		c1.2,1.3,2.6,2.4,4,3.4c3.4,2.5,7.2,4.5,11.1,6c7.9,2.9,16.4,3.4,24.9,3.6c10.4,0.3,21,0.3,30.9-2.9c5.5-1.8,10.7-4.5,14.9-8.4
		c1.3-1.2,2.5-2.5,3.4-4c0.9-1.5,1.6-3.2,1.8-4.9c0.2-1.8-0.1-3.7-0.6-5.5c-0.8-3.3-2.1-6.5-4.1-9.1c-1.7-2.2-4-3.9-6.5-5.3
		c-2.5-1.3-5.1-2.3-7.8-3.1c-1.8-0.5-3.6-1-5.5-1.4c0.6,1.2,1.4,2.3,2.3,3.4c1.7,1.9,3.8,3.3,5.9,4.8c2.1,1.5,4.1,3,5.6,5
		c1.5,2.1,2.5,4.6,2.3,7.2c-0.2,2-1,3.9-2.2,5.6c-1.2,1.6-2.7,3-4.2,4.3c-4.5,3.6-9.7,6.1-15.3,7.7c-6.3,1.8-13,2.3-19.6,2.2
		c-7.2-0.1-14.5-0.9-21.3-3.4c-4.2-1.5-8.3-3.8-11.5-7c-1-1-2-2.2-2.6-3.5c-0.7-1.3-1.1-2.8-0.9-4.2c0.1-1.9,1.1-3.7,2.3-5.3
		C201.1,35.9,206,31.9,211.5,29.4L211.5,29.4z"/>
	
		<path id="path4316" inkscape:connector-curvature="0" inkscape:original-d="m 208.905,153.61053 c 0,0 -27.19689,4.79311 -39.14695,12.70447 -7.76505,5.14073 -16.75423,11.38434 -19.92936,21.77909 -2.16789,7.09725 -0.47613,15.83635 2.13529,22.68655 5.28019,13.8508 15.06174,25.196 25.62346,32.6686 14.69397,10.3963 32.40765,12.1747 49.11162,14.5194 27.59303,3.8732 55.86014,4.6444 83.27624,-0.9074 19.41581,-3.9318 41.34575,-6.3113 56.22925,-22.6866 7.79225,-8.5733 13.17267,-22.2761 13.52349,-35.391 0.32285,-12.06978 -3.72812,-25.36812 -10.67644,-33.5761 -8.58611,-10.14268 -33.45285,-13.61193 -33.45285,-13.61193 0,0 20.87514,18.30197 22.7764,32.66863 1.23885,9.36116 -3.35188,19.508 -8.54115,26.3164 -12.13785,15.925 -30.8412,21.59 -47.6881,27.2239 -14.98033,5.0096 -30.80068,6.5251 -46.26457,5.4447 -22.48668,-1.5709 -46.88031,-2.4747 -66.19393,-17.2418 -9.24839,-7.0712 -21.72823,-18.0821 -20.64112,-31.76112 0.85911,-10.81001 9.16844,-18.88084 19.87008,-23.95703 C 199.618,165.4131 208.905,153.61053 208.905,153.61053 Z" inkscape:path-effect="#path-effect4318" sodipodi:nodetypes="cssssssssscsssssssc" class="st0" d="
		M219.6,40.6c-3.6,0.4-7.2,1.5-10.4,3.4c-1.2,0.7-2.3,1.4-3.2,2.4s-1.7,2.1-2.1,3.4c-0.6,2-0.2,4.1,0.6,6c1.3,3.5,3.7,6.6,6.8,8.6
		c3.8,2.5,8.5,3.4,13,3.8c7.3,0.8,14.7,0.6,22-0.2c2.7-0.3,5.4-0.8,8-1.7c2.6-0.9,5-2.3,6.9-4.3c2.3-2.5,3.5-6,3.6-9.4
		c0.1-3.2-0.8-6.5-2.8-8.9c-2.1-2.5-5.6-3.9-8.9-3.6c1.7,0.7,3.2,1.9,4.3,3.4s1.7,3.4,1.7,5.2c0.1,2.5-0.8,5-2.3,7
		c-1.5,2-3.5,3.6-5.7,4.7c-2.2,1.2-4.6,1.9-7,2.5c-4,1-8.1,1.5-12.2,1.4c-6.1-0.1-12.3-1.5-17.5-4.6c-1.5-0.9-3-2-4.1-3.4
		c-0.5-0.7-1-1.5-1.2-2.4c-0.3-0.9-0.3-1.8-0.2-2.6c0.2-1.4,1-2.6,2-3.6s2.1-1.8,3.2-2.7C216.2,43.7,218,42.2,219.6,40.6L219.6,40.6
		z"/>
	
		<path id="path4320" inkscape:connector-curvature="0" inkscape:original-d="m 189.6874,270.67314 c 0,0 18.65914,-1.9749 27.04698,-2.7224 14.59358,-1.3005 33.79127,4.4558 48.39986,5.4448 23.47427,1.5892 42.17021,2.9485 65.48217,-0.9075 25.06061,-4.1452 49.87449,-11.3787 74.02332,-20.8716 15.87218,-6.2394 31.71229,-13.386 46.26455,-23.594 13.84629,-9.7129 38.43522,-35.39104 38.43522,-35.39104 l -10.67643,35.39104 c 0,0 -13.42852,20.2207 -22.06469,27.2238 -13.49628,10.9443 -29.36338,16.6352 -44.84103,21.7791 -23.66927,7.8663 -48.17374,11.9644 -72.59979,13.6119 -29.40231,1.9833 -58.90301,-1.6392 -88.25857,-4.5373 -14.52401,-1.4338 -28.96935,-3.98 -43.41752,-6.3522 -4.9917,-0.8196 -17.79407,-9.0746 -17.79407,-9.0746 z" inkscape:path-effect="#path-effect4322" sodipodi:nodetypes="csssssccsssssc" class="st0" d="
		M214.6,71.6c2.3-0.5,4.8-0.7,7.2-0.7c4.3,0,8.5,0.9,12.8,1.4c5.8,0.7,11.6,0.6,17.3-0.2c6.7-1,13.3-3,19.6-5.5
		c4.3-1.7,8.4-3.7,12.2-6.2c3.8-2.6,7.3-5.8,10.2-9.4l-2.8,9.4c-1.4,2.8-3.4,5.3-5.8,7.2c-3.4,2.8-7.6,4.4-11.9,5.8
		c-6.2,2-12.7,3.3-19.2,3.6c-7.8,0.4-15.6-0.7-23.4-1.2c-3.9-0.3-7.8-0.4-11.5-1.7C217.6,73.4,216,72.6,214.6,71.6L214.6,71.6z"/>
	
		<path id="path4324" inkscape:connector-curvature="0" inkscape:original-d="m 100.0053,190.81648 c 0,0 -10.796184,21.87766 -9.252914,33.57606 1.70851,12.9511 11.351814,22.3741 19.217594,30.8537 18.00158,19.4065 40.11443,32.1463 61.92335,43.5582 33.97805,17.7796 69.77894,30.7674 106.05264,38.1134 29.07888,5.8889 58.92853,7.8286 88.25858,4.5373 27.58307,-3.0952 56.48341,-6.6238 81.14094,-22.6865 7.93051,-5.1662 14.51998,-13.6668 19.92937,-22.6866 2.90014,-4.8358 4.74927,-10.625 6.40583,-16.3343 1.01818,-3.5091 2.1353,-10.8895 2.1353,-10.8895 0,0 -21.29723,14.465 -32.74107,19.0567 -36.35457,14.5867 -74.35578,25.2238 -112.45851,26.3164 -31.3644,0.8993 -62.73012,-7.0251 -93.24091,-16.3344 -31.74232,-9.685 -63.64143,-21.4674 -92.52915,-40.8357 -9.9118,-6.6456 -18.65007,-15.9619 -27.04698,-25.409 -4.90743,-5.5212 -10.39916,-10.8169 -13.52349,-18.1492 -2.91183,-6.8336 -4.27058,-22.68656 -4.27058,-22.68656 z" inkscape:path-effect="#path-effect4326" sodipodi:nodetypes="csssssssscssssssc" class="st0" d="
		M190.8,50.5c-2.1,2.4-3.1,5.8-2.4,8.9c0.7,3.2,2.8,5.9,5.1,8.2c4.7,4.7,10.5,8.4,16.4,11.5c8.8,4.7,18.2,8.3,28.1,10.1
		c7.7,1.4,15.5,1.6,23.4,1.2c3.8-0.2,7.5-0.5,11.2-1.4c3.7-0.9,7.2-2.3,10.3-4.6c2.1-1.6,4-3.6,5.3-6c0.7-1.4,1.3-2.8,1.7-4.3
		c0.2-0.9,0.4-1.9,0.6-2.9c-2.8,1.9-5.7,3.6-8.7,5c-9.2,4.6-19.5,7.1-29.8,7c-8.4-0.1-16.6-2.1-24.7-4.3
		c-8.6-2.4-17.4-5.3-24.5-10.8c-2.6-2-4.9-4.3-7.2-6.7c-1.4-1.5-2.7-3-3.6-4.8C191.1,54.6,190.7,52.5,190.8,50.5L190.8,50.5z"/>
	
		<path id="path4328" inkscape:connector-curvature="0" inkscape:original-d="m 117.08761,271.58054 c 0,0 17.85154,8.8897 26.33521,14.5194 16.06221,10.6588 29.77266,26.7659 46.26458,36.2985 27.81787,16.0792 57.64408,26.5508 87.54681,34.4836 27.3439,7.254 55.36999,13.2518 83.27624,11.797 18.59644,-0.9696 37.25701,-5.7064 54.80574,-13.6119 12.90889,-5.8154 36.29986,-24.5015 36.29986,-24.5015 0,0 -2.17724,22.73 -7.11759,31.7611 -4.37062,7.9896 -11.60362,13.0652 -18.50584,17.2418 -10.18955,6.1658 -21.51975,9.4382 -32.74109,10.8895 -31.20142,4.0356 -60.5717,1.6192 -91.81739,-1.8149 -21.90163,-2.4071 -46.32237,-7.5635 -67.61745,-14.5193 -20.31506,-6.6357 -39.91939,-17.2244 -58.36454,-29.9463 -10.9411,-7.5462 -21.00248,-17.1432 -30.6058,-27.2239 -7.64246,-8.0223 -15.73367,-15.9253 -21.35288,-26.3164 -3.07688,-5.6897 -6.40586,-19.0567 -6.40586,-19.0567 z" inkscape:path-effect="#path-effect4330" sodipodi:nodetypes="cssssscssssssssc" class="st0" d="
		M195.3,71.9c2.4,1,4.8,2.3,7,3.8c4.3,2.9,8,6.7,12.2,9.6c6.9,4.7,15.1,7.1,23.2,9.1c7.2,1.8,14.6,3.5,22,3.1c5-0.3,10-1.5,14.5-3.6
		c3.5-1.6,6.8-3.8,9.6-6.5c0.4,2.9-0.3,5.9-1.9,8.4c-1.2,1.9-3,3.4-4.9,4.6c-2.6,1.5-5.6,2.4-8.7,2.9c-8,1.4-16.2,0.6-24.3-0.5
		c-6-0.8-12.1-1.9-17.9-3.8c-5.5-1.8-10.8-4.4-15.4-7.9c-2.9-2.2-5.5-4.7-8.1-7.2c-2.1-2.1-4.2-4.3-5.6-7
		C196.2,75.3,195.6,73.6,195.3,71.9L195.3,71.9z"/>
	
		<path id="path4332" inkscape:connector-curvature="0" inkscape:original-d="m 196.09327,380.47604 c 0,0 21.02652,3.9661 31.31755,7.2597 14.99104,4.7979 21.42587,9.1622 36.2999,14.5193 8.69411,3.1314 25.17982,10.592 34.16461,11.7971 16.28754,2.1846 32.7518,2.7825 49.11162,1.8149 11.16164,-0.6602 33.45285,-6.3522 33.45285,-6.3522 0,0 -17.487,21.3614 -27.75875,27.2238 -12.02765,6.8645 -25.26348,8.5652 -38.43518,9.0747 -14.93262,0.5775 -29.6803,-5.1415 -44.12929,-9.9821 -13.13571,-4.4007 -26.63861,-8.6605 -38.43518,-17.2418 -13.45632,-9.7886 -35.58813,-38.1134 -35.58813,-38.1134 z" inkscape:path-effect="#path-effect4334" sodipodi:nodetypes="csssscssssc" class="st0" d="
		M216.3,100.7c2.8,0.4,5.6,1,8.3,1.9c3.3,1.1,6.4,2.5,9.6,3.8c2.9,1.2,5.9,2.4,9,3.1c4.2,0.9,8.7,1,13,0.5c3-0.3,6-0.9,8.9-1.7
		c-1.7,3-4.3,5.5-7.3,7.2c-3.1,1.7-6.6,2.5-10.2,2.4c-4-0.1-7.9-1.3-11.7-2.6c-3.5-1.2-7-2.6-10.2-4.6
		C221.7,108.3,218.5,104.7,216.3,100.7L216.3,100.7z"/>
	
		<path id="path4336" inkscape:connector-curvature="0" inkscape:original-d="m 206.7697,416.77454 c 0,0 18.78108,16.2421 29.18227,21.7791 16.09143,8.5661 33.28577,13.9826 50.53516,17.2417 14.32384,2.7064 28.94074,2.221 43.41752,1.8149 6.18534,-0.1735 18.50583,-1.8149 18.50583,-1.8149 0,0 -15.34084,18.5899 -24.9117,23.594 -12.63485,6.6061 -26.92515,7.9492 -40.57047,7.2597 -10.92829,-0.5522 -21.91237,-3.7773 -32.02932,-9.0745 -11.14325,-5.8346 -22.60141,-13.0239 -30.60579,-24.5015 -6.98113,-10.0105 -13.5235,-36.2985 -13.5235,-36.2985 z" inkscape:path-effect="#path-effect4338" sodipodi:nodetypes="cssscssssc" class="st0" d="
		M219.1,110.3c2.3,2.2,4.9,4.2,7.7,5.8c4.1,2.3,8.7,3.8,13.4,4.6c3.8,0.6,7.7,0.7,11.5,0.5c1.6-0.1,3.3-0.3,4.9-0.5
		c-1.6,2.6-3.9,4.8-6.6,6.2c-3.3,1.7-7.1,2.3-10.7,1.9c-2.9-0.3-5.8-1.1-8.5-2.4c-3.1-1.5-6-3.7-8.1-6.5
		C220.6,117.1,219.3,113.7,219.1,110.3z"/>
	
		<path id="path4340" inkscape:connector-curvature="0" inkscape:original-d="m 310.68705,497.53864 c 0,0 -15.64396,19.664 -25.62345,24.5014 -10.6817,5.1778 -23.01443,6.8212 -34.16461,3.6299 -10.16462,-2.9092 -20.84056,-7.4707 -29.18226,-15.4268 -5.24076,-4.9986 -9.38212,-14.1881 -12.09998,-21.7791 -2.16972,-6.0601 -0.71175,-19.9642 -0.71175,-19.9642 0,0 16.55837,12.9948 25.62345,17.2418 12.31889,5.7713 25.40338,8.9069 38.43518,10.8895 12.48812,1.9 37.72342,0.9075 37.72342,0.9075 z" inkscape:path-effect="#path-effect4342" sodipodi:nodetypes="csssscssc" class="st0" d="
		M246.6,131.6c-1.4,2.9-3.9,5.2-6.8,6.5c-2.8,1.3-6,1.5-9,1c-2.9-0.6-5.7-2-7.7-4.1c-1.5-1.6-2.7-3.6-3.2-5.8
		c-0.4-1.7-0.5-3.5-0.2-5.3c2,1.8,4.3,3.4,6.8,4.6c3.2,1.5,6.7,2.4,10.2,2.9C239.9,131.8,243.2,131.9,246.6,131.6z"/>
	
		<path id="path4344" inkscape:connector-curvature="0" inkscape:original-d="m 282.92831,541.09674 c 0,0 -18.98809,3.7532 -28.4705,2.7224 -7.7975,-0.8477 -15.23458,-4.5964 -22.77641,-7.2597 -5.49701,-1.9412 -16.37054,-6.3522 -16.37054,-6.3522 0,0 6.27841,19.9371 10.67644,29.0388 4.43136,9.1706 10.2201,17.1664 15.65878,25.4089 4.10962,6.2283 12.81173,18.1493 12.81173,18.1493 0,0 1.7849,-16.543 4.98234,-23.5941 3.52669,-7.7771 10.67008,-11.9175 14.94701,-19.0567 3.48319,-5.8142 8.54115,-19.0567 8.54115,-19.0567 z" inkscape:path-effect="#path-effect4346" sodipodi:nodetypes="csscsscssc" class="st0" d="
		M239.2,143.2c-2.4,0.9-5,1.1-7.5,0.7c-2.1-0.4-4.1-1.1-6-1.9c-1.4-0.6-2.9-1.1-4.3-1.7c0.6,2.7,1.6,5.2,2.8,7.7
		c1.2,2.3,2.7,4.6,4.1,6.7c1.1,1.6,2.2,3.2,3.4,4.8c-0.2-2.1,0.2-4.4,1.3-6.2c1.1-1.8,2.7-3.3,4-5C238,146.7,238.8,145,239.2,143.2z
		"/>
	
		<path id="path4348" inkscape:connector-curvature="0" inkscape:original-d="m 206.7697,190.81647 c 0,0 26.36875,-5.17205 41.994,-7.2597 13.93975,-1.86245 28.33015,-1.25861 41.994,2.72239 9.53641,2.77846 27.87115,8.42319 28.47051,20.87158 0.90512,18.7992 -21.97216,22.6357 -36.2999,27.2239 -15.88404,5.0866 -37.32354,0.03 -52.67044,-7.2597 -10.90301,-5.179 -23.48817,-36.29847 -23.48817,-36.29847 z" inkscape:path-effect="#path-effect4350" sodipodi:nodetypes="csssssc" class="st0" d="
		M219.1,50.5c3.6-1.1,7.3-1.7,11.1-1.9c3.7-0.2,7.5,0,11.1,0.7c1.6,0.3,3.3,0.7,4.7,1.6c0.7,0.4,1.4,1,1.9,1.7
		c0.5,0.7,0.9,1.5,1,2.3c0.1,1.1-0.1,2.3-0.7,3.2c-0.6,1-1.4,1.7-2.4,2.3c-1.9,1.1-4.2,1.5-6.5,1.7c-2.4,0.2-4.8,0.4-7.1,0.1
		s-4.7-0.8-6.8-2.1C221.9,58.1,219.5,54.4,219.1,50.5z"/>
	<g id="g4181">
		
			<path id="path4352" inkscape:connector-curvature="0" inkscape:original-d="m 216.02262,72.84642 c 0.64752,19.42653 2.53664,39.98543 2.84705,58.07756 0.0522,3.32669 -0.59961,6.74373 0,9.98208 0.48755,2.63316 1.04191,5.83732 2.84705,7.2597 2.22003,1.7493 5.2323,0.32787 7.82939,0 3.61163,-0.45595 7.07871,-2.11346 10.67644,-2.72239 7.07139,-1.19686 14.22069,-1.64593 21.35288,-1.81492 8.06874,-0.19118 16.84157,0.0146 24.9117,0 7.35869,-0.0133 14.72881,1.07573 22.06464,1.81493 6.26211,0.631 11.5148,2.94256 17.79406,2.72238 1.95571,-0.0686 4.04752,-0.4678 5.69411,-1.81493 1.27856,-1.04604 2.24384,-2.75968 2.84705,-4.53731 1.33227,-3.92613 1.36142,-8.42738 1.42352,-12.70446 0.0839,-5.77802 -0.99803,-11.48829 -1.42352,-17.24178 -0.18127,-15.3155 -2.73691,-29.85753 -4.98234,-42.65072 -0.9657,-5.60567 -1.12437,-14.66174 -2.84705,-19.96416 -1.0151,-3.12448 -1.46803,-6.99335 -3.55882,-9.07462 -1.7241,-1.71626 -4.24005,-1.42426 -6.40586,-1.81492 -3.76597,-0.67929 -7.58501,-0.96643 -11.3882,-0.90746 -5.47704,0.0849 -10.91976,1.12678 -16.37054,1.81492 -19.05541,2.65841 -41.74802,5.77093 -57.65278,10.88955 -3.56612,1.17447 -9.90691,3.46515 -12.81173,6.35223 -1.92647,1.91471 -3.07779,5.11384 -3.55881,8.16716 -0.42308,2.6855 0.5366,5.43713 0.71176,8.16716 z" inkscape:path-effect="#path-effect4354" sodipodi:nodetypes="ccsssssssssssccssssccssc" class="st1" d="
			M221.5,19.3c0.8,5.1,0.9,10.2,0.8,15.4c0,0.9,0,1.8,0,2.6c0,0.4,0,0.7,0.1,1.1s0.3,0.7,0.6,0.9c0.3,0.2,0.7,0.3,1,0.2
			s0.7-0.1,1-0.2c0.9-0.3,1.9-0.5,2.8-0.7c1.9-0.4,3.8-0.4,5.6-0.5c2.2,0,4.4,0,6.6,0c2,0,3.9,0.1,5.8,0.5c1.6,0.3,3.1,0.8,4.7,0.7
			c0.5,0,1.1-0.1,1.5-0.5c0.4-0.3,0.6-0.7,0.8-1.2c0.4-1.1,0.4-2.2,0.4-3.4c0-1.5-0.2-3-0.4-4.6c-0.4-3.8-0.8-7.5-1.3-11.3
			c-0.3-1.8-0.6-3.5-0.8-5.3c-0.1-0.4-0.1-0.9-0.2-1.3c-0.1-0.4-0.4-0.8-0.7-1.1c-0.2-0.2-0.5-0.3-0.8-0.4s-0.6-0.1-0.9-0.1
			c-1-0.1-2-0.2-3-0.2c-1.5,0-2.9,0.2-4.3,0.5c-5.1,0.8-10.2,1.6-15.3,2.9c-0.6,0.2-1.2,0.3-1.8,0.6c-0.6,0.3-1.1,0.6-1.6,1.1
			c-0.5,0.6-0.9,1.4-0.9,2.2C221.3,17.8,221.4,18.6,221.5,19.3L221.5,19.3z"/>
		
			<path id="path4360" inkscape:connector-curvature="0" inkscape:original-d="m 224.56377,62.86433 46.97634,44.46564 47.6881,-59.89249" inkscape:path-effect="#path-effect4362" class="st2" d="
			M223.8,16.6l12.4,11.8l12.6-15.8"/>
		
			<path id="path4364" inkscape:connector-curvature="0" inkscape:original-d="M 226.69906,136.36875 254.4578,91.90312" inkscape:path-effect="#path-effect4366" class="st2" d="
			M224.3,36.1l7.3-11.8"/>
		
			<path id="path4368" inkscape:connector-curvature="0" inkscape:original-d="m 285.77536,90.08819 40.57047,45.3731" inkscape:path-effect="#path-effect4370" class="st2" d="
			M240,23.8l10.7,12"/>
	</g>
</g>
</svg>
